<svg width="1012" height="302" viewBox="0 0 1012 302" fill="none" xmlns="http://www.w3.org/2000/svg">
<g clip-path="url(#clip0_9_117)">
<path d="M961.048 185.014C953.235 188.705 945.369 190.032 936.318 191.668L934.024 205.957C933.477 209.357 933.495 212.284 932.348 215.174C931.492 202.23 932.348 189.468 938.066 178.197L936.263 190.286C956.987 186.887 974.086 174.47 984.211 155.563C994.463 136.456 998.87 114.913 993.79 93.4069C988.873 72.6458 976.108 54.7752 959.445 41.9768C954.11 37.9045 948.555 36.5229 942.018 36.741L898.805 38.1045C907.382 33.4142 915.795 34.0323 923.844 31.7962C906.836 11.1987 894.398 4.87214 868.521 7.36275C848.617 9.28979 835.215 22.3064 831.937 41.7586C857.814 36.3774 882.47 31.9598 909.021 32.887L862.73 42.3949C849.856 45.0309 837.691 48.376 825.29 52.1574C822.358 50.4485 818.88 49.7031 815.748 50.903C799.304 57.1749 784.171 65.3558 770.368 76.1181C765.396 79.9904 763.029 85.4988 763.976 91.9162C767.145 113.277 784.626 142.546 799.996 160.381C800.906 150.764 795.753 142.728 799.413 134.184C800.415 131.893 803.784 131.384 805.769 132.42C804.093 106.569 807.262 85.9169 829.66 71.1914C824.343 69.5734 819.699 71.046 814.164 71.5368C822.376 64.1014 832.611 64.4831 842.226 64.5377C846.159 63.1924 850.712 61.8835 854.973 61.2108L862.348 60.0473C858.961 58.5384 856.994 57.7203 854.663 55.5569C864.879 55.3024 873.493 58.702 882.325 62.9379C895.873 63.556 907.928 67.8464 919.911 74.082C933.86 81.3175 945.842 91.2254 953.053 105.206C955.293 109.532 955.603 113.914 952.434 118.368C960.574 118.222 967.075 121.476 970.79 127.203C974.505 132.984 974.287 140.601 970.645 146.819C966.219 154.4 962.741 161.835 961.029 170.634C960.028 175.833 957.205 180.778 951.851 182.323C946.88 183.723 941.289 180.287 940.78 174.688C943.511 176.379 945.878 178.142 948.027 178.724C952.325 179.851 957.387 172.47 958.662 163.762C959.482 158.235 961.521 153.436 964.58 148.837C971.846 137.983 966.492 126.112 961.448 126.13C960.064 126.13 957.606 127.548 956.258 128.748C952.143 132.42 952.507 137.583 951.287 143.419C946.771 136.82 949.302 129.039 955.821 125.567C953.472 124.258 950.34 124.876 948.847 126.403C947.19 128.075 946.643 130.275 945.806 134.057L939.377 131.439L938.922 116.495C938.704 109.369 935.899 103.242 931.511 97.6064L929.817 89.7347L922.66 83.9353C924.081 79.4813 921.55 79.1541 919.109 77.6634C906.981 70.2461 894.198 66.4102 880.285 64.6468C868.94 63.2288 859.325 65.3558 848.69 69.2644C841.406 71.955 833.303 72.5185 826.71 77.4452C818.425 83.6627 812.871 93.8796 812.798 104.533L814 115.077C808.099 124.24 808.755 133.129 811.104 143.11L823.542 144.892L814.764 150.164L821.393 150.073C816.021 153.636 813.708 157.563 811.669 163.871L808.245 150.582L811.996 151.218C811.159 147.564 810.631 145.382 809.447 142.71L805.55 133.838C804.275 133.493 802.054 135.565 801.981 137.129C801.234 151.182 803.219 164.78 809.01 177.379C810.94 181.56 813.745 184.069 817.86 186.159C816.458 187.05 812.761 187.632 811.396 186.977C810.248 186.414 808.391 184.541 807.936 183.214L800.888 163.889C781.986 146.673 759.478 120.058 756.983 94.7159C756.018 85.0988 758.349 75.4091 765.979 69.228C782.55 55.7569 802.418 47.2125 823.141 43.4857C827.876 24.5425 839.33 6.98098 858.469 2.50879C871.69 -0.581747 888.207 -1.85432 902.629 5.96292C912.681 11.4168 920.074 21.3611 925.683 32.3416C940.015 30.0691 954.055 31.5235 966.019 39.977C987.835 55.3752 1001.67 79.954 1003.15 106.769C1004.86 137.311 989.128 171.888 960.993 185.123L961.048 185.014Z" fill="#CCA678"/>
<path d="M1012 236.99V242.189C1001.75 238.408 991.513 235.117 980.697 232.645L966.456 230.936C968.805 251.97 970.754 271.276 970.171 292.783C956.094 279.839 940.761 278.639 922.788 282.73C911.479 286.856 901.609 292.656 892.887 301.036L889.354 302.036L891.43 299.873L890.592 298.782C883.982 290.092 876.479 282.457 867.902 275.494C851.95 262.496 838.511 247.116 835.907 225.609C838.638 228.009 839.694 231.027 841.024 234.517C844.848 244.552 851.221 253.297 858.742 261.078L880.595 283.675C884.965 288.202 888.753 293.583 891.357 298.655L892.395 299.528C910.186 278.621 937.393 269.458 963.233 282.275L961.667 229.318L946.625 211.175L945.241 220.192C943.147 240.28 934.005 258.205 918.472 271.331L897.658 288.911C901.737 280.984 907.801 276.094 914.102 270.458C935.134 251.606 942.109 228.136 939.05 200.14L936.209 193.649C940.197 193.595 943.584 195.376 945.824 198.685C952.27 208.211 959.154 217.119 967.64 224.882L985.286 228.991C994.391 231.099 1002.97 233.808 1012.04 237.026L1012 236.99Z" fill="#CCA678"/>
<path d="M788.341 244.661C788.086 244.771 787.831 244.88 787.576 244.989C786.921 245.261 786.284 245.534 785.646 245.825C786.539 245.443 787.431 245.061 788.341 244.698C788.505 244.643 788.651 244.571 788.815 244.498C788.651 244.552 788.487 244.625 788.341 244.68V244.661ZM797.374 241.062C796.281 241.48 795.225 241.898 794.15 242.316C795.808 241.644 797.501 241.007 799.195 240.371C798.576 240.589 797.975 240.826 797.374 241.062ZM793.258 242.662C791.892 243.225 790.508 243.771 789.161 244.334C790.818 243.643 792.475 242.989 794.169 242.316C794.023 242.371 793.877 242.425 793.75 242.462C793.586 242.534 793.422 242.607 793.258 242.662ZM815.001 242.207C814.473 243.334 813.945 244.461 813.417 245.589C813.162 246.152 812.907 246.679 812.652 247.243C813.453 245.57 814.236 243.88 815.038 242.171H815.001V242.207ZM816.931 234.026C817.059 233.863 817.186 233.681 817.314 233.517C817.168 233.681 817.041 233.863 816.913 234.026H816.931ZM825.727 118.877L817.241 126.857C815.62 128.385 815.092 131.53 815.365 134.347C815.11 131.53 815.639 128.421 817.259 126.876L825.727 118.877ZM830.626 268.095C830.626 268.459 830.662 268.84 830.717 269.204C830.68 268.84 830.662 268.459 830.644 268.095H830.626ZM831.39 113.314H831.445C831.791 113.005 832.228 112.714 832.738 112.423C832.192 112.696 831.718 113.005 831.39 113.314ZM832.756 112.423C833.303 112.15 833.922 111.877 834.614 111.641C833.922 111.877 833.303 112.132 832.756 112.423ZM833.812 138.292C834.031 138.983 834.122 139.729 833.867 139.965L831.991 141.819L833.885 139.983C834.14 139.729 834.049 138.965 833.812 138.292ZM834.395 134.602C834.395 134.602 834.304 134.638 834.249 134.638C833.976 134.729 833.721 134.802 833.448 134.893C833.758 134.784 834.067 134.693 834.395 134.62C834.723 134.529 835.033 134.438 835.36 134.366C835.033 134.438 834.723 134.529 834.395 134.602ZM839.021 133.675C838.802 133.675 838.602 133.729 838.401 133.784C839.021 133.693 839.622 133.584 840.241 133.511C839.822 133.566 839.421 133.62 839.021 133.675ZM836.58 134.093C837.181 133.966 837.782 133.857 838.401 133.766C838.183 133.766 837.983 133.82 837.782 133.857C837.363 133.929 836.963 134.002 836.58 134.093ZM837.964 122.767C837.964 122.767 837.892 122.767 837.855 122.767C837.928 122.767 838.019 122.767 838.11 122.767C838.201 122.767 838.274 122.767 838.365 122.731C838.219 122.731 838.092 122.767 837.964 122.767ZM845.012 133.166C845.594 133.239 846.123 133.384 846.614 133.566C846.123 133.366 845.576 133.239 845.012 133.166ZM845.758 121.567C845.613 121.567 845.467 121.567 845.321 121.567C845.212 121.567 845.085 121.604 844.957 121.622C845.358 121.585 845.74 121.549 846.104 121.549H845.74L845.758 121.567ZM843.81 121.785C844.192 121.731 844.593 121.676 844.957 121.64C844.884 121.64 844.793 121.64 844.72 121.64C844.411 121.676 844.101 121.713 843.792 121.767L843.81 121.785ZM850.821 171.707C851.094 171.707 851.349 171.743 851.586 171.761C851.331 171.725 851.076 171.725 850.821 171.707ZM860.49 174.143C860.49 174.143 860.418 174.106 860.381 174.07C860.09 173.906 859.817 173.743 859.525 173.579C859.853 173.761 860.181 173.961 860.49 174.161C860.49 174.161 860.527 174.161 860.545 174.197L860.49 174.143ZM863.04 176.524C863.24 176.779 863.422 177.015 863.604 177.288C863.422 177.015 863.24 176.761 863.022 176.524H863.04ZM864.788 192.013C865.608 191.541 866.409 191.141 867.228 190.813C866.391 191.141 865.589 191.559 864.77 191.995L864.788 192.013ZM866.591 245.934L864.934 258.605L866.609 245.989V245.934H866.591ZM877.736 169.67L867.192 177.251L877.754 169.689C877.754 169.689 877.9 169.58 877.991 169.525C877.9 169.561 877.808 169.616 877.736 169.67ZM879.739 200.376C881.323 200.03 882.926 199.594 884.546 199.103C882.926 199.612 881.323 200.03 879.739 200.376ZM885.184 169.398C884.874 169.398 884.528 169.361 884.164 169.325C884.528 169.361 884.874 169.398 885.184 169.416C885.293 169.361 885.402 169.289 885.493 169.18C885.384 169.271 885.293 169.343 885.184 169.398ZM889.19 191.304C891.066 191.413 892.613 191.413 893.852 191.45C892.632 191.395 891.066 191.395 889.19 191.304ZM891.357 298.6L890.592 298.746L891.43 299.837L892.395 299.473L891.357 298.6ZM885.475 255.696L894.161 242.825L885.457 255.696H885.475ZM894.234 131.239C894.307 131.53 894.398 131.802 894.489 132.093C894.416 131.82 894.343 131.53 894.252 131.239H894.234ZM898.204 127.476C897.858 127.476 897.512 127.548 897.166 127.603C897.512 127.566 897.858 127.53 898.204 127.494C899.515 127.385 900.899 127.457 902.228 127.694C900.899 127.439 899.515 127.366 898.204 127.476ZM896.201 127.73C896.201 127.73 896.201 127.73 896.164 127.73C896.328 127.73 896.492 127.676 896.674 127.639C896.856 127.603 897.02 127.585 897.184 127.566C897.057 127.566 896.929 127.566 896.802 127.603C896.601 127.639 896.401 127.676 896.201 127.712V127.73ZM890.191 129.875C890.191 129.875 890.046 129.966 889.973 130.021C890.046 129.984 890.119 129.93 890.191 129.893V129.875ZM901.081 199.758C900.826 200.34 900.644 200.885 900.535 201.448C900.662 200.903 900.844 200.358 901.099 199.794V199.758H901.081ZM899.624 116.15C901.791 115.822 903.94 115.15 906.053 114.168C903.94 115.15 901.791 115.804 899.624 116.15ZM904.05 105.66C904.523 105.86 904.996 106.06 905.452 106.278H905.506C905.015 106.042 904.523 105.842 904.05 105.66ZM901.882 104.842C901.737 104.787 901.609 104.751 901.482 104.715C901.864 104.842 902.247 104.969 902.593 105.115C903.084 105.278 903.558 105.478 904.031 105.678C903.594 105.46 903.157 105.296 902.738 105.151C902.447 105.042 902.156 104.951 901.864 104.842H901.882ZM907.364 134.493C907.637 134.584 907.928 134.657 908.22 134.747C907.928 134.657 907.619 134.584 907.346 134.511L907.364 134.493ZM916.178 112.641C916.032 112.586 915.868 112.532 915.704 112.477C916.032 112.586 916.341 112.714 916.615 112.841C916.487 112.768 916.341 112.714 916.178 112.641ZM917.325 113.241C917.325 113.241 917.124 113.095 916.997 113.023C916.888 112.968 916.76 112.895 916.615 112.841C916.888 112.968 917.124 113.114 917.325 113.259C917.416 113.332 917.507 113.405 917.598 113.477C917.507 113.386 917.416 113.314 917.325 113.241ZM937.465 164.962C937.538 163.144 937.684 161.271 937.866 159.381C937.666 161.253 937.538 163.126 937.465 164.962ZM948.264 161.544C948.519 161.435 948.774 161.29 949.011 161.126C948.774 161.271 948.519 161.417 948.264 161.544Z" fill="#CCA678"/>
<path d="M887.733 299.382C882.233 296.092 877.207 292.383 871.653 289.565C869.996 288.711 868.284 287.947 866.482 287.311C864.697 286.656 862.84 286.147 860.891 285.766L841.37 282.021C840.933 281.93 840.532 281.839 840.131 281.712C839.33 281.475 838.583 281.148 837.873 280.784C837.327 280.493 836.799 280.148 836.325 279.766C835.87 279.457 835.451 279.094 835.069 278.694C834.213 277.876 833.503 276.967 832.902 275.949C832.556 275.385 832.246 274.803 831.991 274.185C831.882 273.967 831.809 273.767 831.736 273.549C831.354 272.604 831.081 271.64 830.899 270.64C830.808 270.149 830.735 269.658 830.698 269.168C830.644 268.804 830.626 268.422 830.607 268.059C830.261 268.004 829.915 267.968 829.588 267.95C828.896 267.877 828.24 267.822 827.584 267.822C824.143 267.695 820.974 268.168 817.951 269.131C817.405 269.295 816.859 269.477 816.331 269.695C815.256 270.095 814.218 270.567 813.162 271.058C811.596 271.84 810.048 272.731 808.5 273.749C805.914 275.403 803.347 277.367 800.688 279.512C800.888 278.639 801.088 277.803 801.289 276.948C801.726 275.276 802.181 273.64 802.655 272.004C802.891 271.167 803.164 270.367 803.419 269.568C806.552 259.95 810.776 251.206 815.001 242.153C815.001 242.153 815.001 242.153 815.001 242.116L803.274 245.989L742.542 270.095C755.071 260.569 768.747 253.151 782.987 246.916C792.475 242.734 802.199 239.08 812.033 235.663C813.654 235.081 815.311 234.535 816.95 233.972C817.223 233.626 817.478 233.281 817.733 232.936C818.498 231.899 819.208 230.863 819.918 229.79C820.373 229.063 820.847 228.354 821.32 227.645C821.794 226.936 822.285 226.245 822.759 225.555C823.742 224.173 824.78 222.828 826 221.573C826.619 220.937 827.238 220.355 827.93 219.774C828.622 219.192 829.351 218.665 830.152 218.156C828.131 222.373 826.146 226.5 824.234 230.59C821.338 236.735 818.589 242.771 815.985 248.861C813.362 254.951 810.904 261.059 808.609 267.35C810.412 266.641 812.197 265.986 814 265.404C814.71 265.168 815.402 264.968 816.112 264.75C816.476 264.641 816.84 264.55 817.186 264.459C821.193 263.386 825.162 262.932 829.132 263.514C829.242 263.514 829.369 263.514 829.478 263.568C830.243 263.677 830.972 263.841 831.736 264.059C832.556 264.277 833.357 264.55 834.177 264.877C834.595 265.059 834.996 265.223 835.397 265.423C834.705 268.022 834.705 270.404 835.433 272.404C835.579 272.822 835.761 273.203 835.961 273.567C836.38 274.312 836.908 274.985 837.545 275.585C838.365 276.349 839.367 276.967 840.587 277.457C847.507 280.293 856.903 280.439 866.919 284.275C867.975 284.675 869.031 285.129 870.105 285.602C871.18 286.093 872.236 286.638 873.31 287.22C874.075 287.62 874.804 288.074 875.55 288.547C876.953 289.42 878.373 290.401 879.775 291.51C882.47 293.637 885.147 296.201 887.769 299.291L887.733 299.382Z" fill="#CCA678"/>
<path d="M920.129 120.549L916.578 131.948C914.994 130.493 913.646 128.784 912.19 127.33C912.026 127.13 911.825 126.948 911.643 126.785C911.279 126.421 910.897 126.094 910.514 125.785C910.132 125.476 909.731 125.185 909.312 124.949C908.657 124.567 907.983 124.258 907.218 124.058C906.18 123.785 905.124 123.64 904.05 123.585C901.737 123.458 899.351 123.767 896.984 124.076C896.984 124.076 896.947 124.076 896.911 124.076C894.708 124.349 892.504 124.64 890.428 124.585C886.058 124.476 883.253 124.131 878.956 126.53L878.227 112.296C879.848 111.623 882.98 111.95 884.437 112.841C889.481 115.895 894.58 116.895 899.624 116.131C901.791 115.786 903.94 115.113 906.053 114.15C907.127 113.659 908.165 113.077 909.221 112.459C909.731 112.15 910.405 111.968 911.188 111.914C911.443 111.914 911.716 111.877 911.989 111.877C912.499 111.877 913.027 111.914 913.519 111.987C915.067 112.186 916.56 112.659 917.325 113.223C917.416 113.295 917.507 113.368 917.598 113.459C918.49 114.277 919.364 115.768 919.874 117.277C920.275 118.44 920.421 119.64 920.147 120.531L920.129 120.549Z" fill="#CCA678"/>
<path d="M853.079 127.439C853.079 127.621 852.933 127.821 852.733 128.039C852.423 128.348 851.95 128.657 851.495 128.912C851.185 129.075 850.875 129.203 850.62 129.257C850.493 129.294 850.366 129.312 850.275 129.312L836.162 129.603C832.228 129.675 828.586 131.348 824.98 133.42C824.179 133.893 823.396 134.366 822.577 134.856C821.375 135.584 820.173 136.311 818.953 137.056C818.133 137.529 817.332 138.002 816.494 138.438C816.276 138.038 816.076 137.583 815.912 137.093C815.802 136.802 815.73 136.474 815.639 136.129C815.639 136.038 815.602 135.929 815.584 135.82C815.493 135.438 815.438 135.056 815.384 134.675C815.384 134.566 815.384 134.475 815.347 134.366C815.074 131.548 815.602 128.421 817.223 126.876L825.709 118.895C826.565 118.095 827.475 117.84 828.422 117.931C828.659 117.968 828.896 118.004 829.114 118.077C829.66 118.222 830.189 118.477 830.698 118.804C830.881 118.913 831.081 119.058 831.263 119.204C831.372 119.277 831.463 119.349 831.573 119.44C831.864 119.677 832.155 119.931 832.428 120.204C832.556 120.295 832.665 120.422 832.756 120.531C833.066 120.84 833.357 121.167 833.612 121.494C833.721 121.622 833.831 121.731 833.94 121.84C835.597 123.403 838.511 122.822 841.625 122.222C844.047 121.731 846.596 121.258 848.781 121.84C849.874 122.113 850.839 122.622 851.677 123.512C851.877 123.712 852.077 123.949 852.259 124.203C852.715 124.821 853.115 126.748 853.079 127.476V127.439Z" fill="#CCA678"/>
<path d="M905.652 228.718C903.922 230.99 902.01 232.754 899.952 234.154C896.219 236.644 892.013 237.935 887.551 238.735C886.549 238.917 885.548 239.062 884.51 239.208C883.344 239.353 882.179 239.517 881.013 239.644C879.32 239.844 877.626 240.007 875.915 240.117C875.842 240.117 875.751 240.117 875.678 240.117C869.96 240.516 864.278 240.353 858.669 238.989C857.377 238.662 856.047 238.262 854.754 237.826C854.463 237.717 854.172 237.608 853.88 237.481C851.64 236.462 849.765 234.772 847.944 233.008C847.488 232.554 847.051 232.118 846.614 231.699C846.159 231.245 845.704 230.809 845.267 230.409C844.557 229.791 843.883 229.227 843.154 228.7C836.562 223.955 830.862 219.464 826.947 212.12C823.669 205.975 818.935 200.43 817.769 192.631L831.991 215.265C832.538 216.138 833.175 216.901 833.903 217.592C834.14 217.828 834.395 218.065 834.65 218.283C835.16 218.719 835.688 219.119 836.234 219.483C839.002 221.337 842.262 222.573 845.03 223.737C846.505 226.427 848.107 228.827 850.02 230.827C851.112 231.954 852.278 232.954 853.607 233.808C855.264 234.863 857.158 235.644 859.361 236.153C860.982 236.517 862.621 236.826 864.242 237.062C865.881 237.299 867.52 237.462 869.14 237.553C878.992 238.099 888.753 236.153 897.913 231.681L905.67 228.791L905.652 228.718Z" fill="#CCA678"/>
<path d="M897.403 195.34C894.689 194.649 892.231 194.467 889.208 194.631L867.538 197.049C862.858 195.104 858.069 194.34 853.261 195.504C851.731 195.867 850.183 196.449 848.654 197.213L846.232 197.522C845.522 197.613 845.795 195.104 845.959 194.413C846.305 193.977 846.669 193.577 847.051 193.231C851.604 188.632 858.087 187.959 863.75 191.359C864.096 191.577 864.424 191.795 864.77 192.031C865.589 191.577 866.391 191.159 867.228 190.85C871.398 189.105 875.678 188.923 880.212 190.013C882.124 190.486 883.854 190.795 885.457 190.995C889.099 191.468 891.885 191.395 893.852 191.486C895.163 191.541 896.128 191.668 896.729 192.086C896.729 192.086 896.875 192.195 896.929 192.25C897.512 192.813 897.658 193.74 897.385 195.358L897.403 195.34Z" fill="#CCA678"/>
<path d="M863.623 177.288C860.818 176.451 858.487 175.742 856.229 175.306C855.774 175.215 855.319 175.143 854.882 175.088C853.753 174.924 852.605 174.852 851.422 174.888C850.493 174.924 849.728 174.815 849.036 174.579C848.654 174.452 848.29 174.27 847.962 174.07C847.634 173.87 847.324 173.615 847.051 173.325C846.232 172.452 845.649 171.288 845.157 169.87C844.921 169.161 844.684 168.416 844.465 167.598C844.465 167.598 844.465 167.586 844.465 167.562L839.476 186.723C834.96 177.379 840.568 168.089 847.579 160.635L856.502 151.164C854.554 158.29 848.344 163.217 850.857 171.725C852.897 171.816 854.809 172.016 856.521 172.47C857.103 172.616 857.65 172.797 858.196 172.997C860.053 173.706 861.692 174.815 863.076 176.524C863.295 176.761 863.477 177.015 863.659 177.288H863.623Z" fill="#CCA678"/>
<path d="M905.506 106.278H905.452C894.817 105.387 885.548 104.569 876.552 107.696C875.66 107.987 874.804 108.332 873.93 108.732C873.037 109.114 872.181 109.55 871.307 110.005C870.852 110.241 870.415 110.496 869.996 110.75C869.031 111.332 867.01 111.423 865.225 111.241C864.697 111.187 864.187 111.114 863.75 111.023C863.441 110.95 863.167 110.878 862.912 110.805C861.929 110.405 861 110.059 860.035 109.732C859.726 109.623 859.398 109.514 859.07 109.405C858.815 109.314 858.542 109.241 858.287 109.169C857.449 108.914 856.648 108.678 855.81 108.478C850.165 107.078 844.739 106.787 838.729 106.878C841.716 101.588 857.213 106.369 866.281 108.914C868.558 107.751 870.907 106.714 873.329 105.842C874.294 105.496 875.259 105.169 876.242 104.878C885.93 102.006 896.255 101.933 905.488 106.242L905.506 106.278Z" fill="#CCA678"/>
<path d="M899.096 179.124C899.242 176.506 898.896 174.088 898.131 171.907C897.931 171.288 897.676 170.707 897.385 170.143C896.984 169.325 896.529 168.58 896.019 167.871C895.691 167.398 895.309 166.944 894.926 166.544C894.671 166.271 894.434 166.016 894.161 165.762C893.087 164.744 891.885 163.889 890.519 163.162C890.319 163.853 890.028 164.944 889.682 165.98C889.499 166.507 889.299 166.998 889.099 167.38C888.99 167.58 888.88 167.762 888.771 167.907C888.662 168.053 888.553 168.18 888.425 168.252L875.896 176.415C875.459 176.706 875.004 176.961 874.585 177.179C874.367 177.288 874.148 177.379 873.93 177.47C871.581 178.433 869.286 178.342 867.155 177.251L877.699 169.67C877.699 169.67 877.863 169.561 877.954 169.525C878.045 169.471 878.154 169.434 878.264 169.398C878.664 169.234 879.174 169.161 879.702 169.125C880.85 169.052 882.234 169.161 883.472 169.271C883.69 169.271 883.927 169.307 884.127 169.325C884.492 169.361 884.838 169.38 885.147 169.398C885.256 169.343 885.347 169.271 885.457 169.18C886.549 168.107 886.932 164.307 886.003 162.762C884.91 161.017 882.543 159.617 879.611 157.799C879.812 157.417 880.048 157.09 880.303 156.817C880.686 156.418 881.123 156.108 881.614 155.927C884.364 154.836 888.68 156.836 892.668 160.163C893.287 160.672 893.87 161.217 894.453 161.781C894.653 161.962 894.853 162.162 895.035 162.362C897.348 164.689 899.369 167.38 900.662 170.034C902.192 173.179 902.939 177.233 899.06 179.088L899.096 179.124Z" fill="#CCA678"/>
<path d="M907.364 134.493C907.637 134.566 907.946 134.638 908.238 134.729C905.925 136.329 902.065 137.511 898.75 136.947C897.985 136.82 897.275 136.62 896.601 136.293C896.401 136.202 896.219 136.038 896.037 135.82C895.673 135.384 895.345 134.711 895.054 133.893C894.926 133.584 894.817 133.239 894.726 132.893C894.544 132.348 894.38 131.784 894.216 131.202L884.929 135.384C885.202 134.766 885.53 134.202 885.912 133.657C886.294 133.111 886.732 132.584 887.187 132.148C887.424 131.893 887.678 131.657 887.933 131.457C890.72 129.057 894.598 127.73 898.204 127.439C899.515 127.33 900.899 127.403 902.228 127.657C902.556 127.712 902.866 127.785 903.175 127.857C903.485 127.93 903.795 128.021 904.086 128.112C905.288 128.494 906.471 129.021 907.528 129.693C908.074 130.039 908.584 130.421 909.039 130.821C909.276 131.021 909.513 131.257 909.731 131.493C910.623 132.402 911.352 133.457 911.88 134.693L904.359 130.748L904.031 132.966C903.977 133.366 904.559 133.657 905.525 133.966C905.743 134.038 905.962 134.093 906.198 134.166C906.563 134.275 906.963 134.384 907.364 134.493Z" fill="#CCA678"/>
<path d="M913.537 99.6608C902.757 98.6609 893.433 97.4974 883.272 98.4791L863.404 100.352C878.355 93.7524 898.149 92.0253 913.537 99.6608Z" fill="#CCA678"/>
<path d="M851.039 138.583L849.856 139.092C849.728 139.147 849.564 139.056 849.4 138.874C849.164 138.62 848.891 138.22 848.581 137.965L846.469 135.984C846.141 135.675 845.194 136.275 844.629 136.893C844.52 137.002 844.429 137.093 844.374 137.184C844.229 137.383 844.138 137.565 844.138 137.711C844.138 138.402 844.429 138.765 845.594 140.983L831.973 141.837L833.849 139.983C834.104 139.747 834.013 138.983 833.794 138.311C833.685 137.929 833.521 137.583 833.339 137.347C833.175 137.147 833.011 137.056 832.847 137.129L824.707 141.238C825.181 140.456 825.727 139.765 826.31 139.129C828.695 136.565 831.9 135.202 835.342 134.384C837.473 133.857 839.676 133.548 841.843 133.311C842.28 133.257 842.699 133.22 843.118 133.166C843.792 133.093 844.393 133.093 844.957 133.166C845.54 133.239 846.068 133.366 846.56 133.566C849.255 134.584 850.566 137.056 850.912 138.111C851.003 138.402 851.021 138.583 850.985 138.602L851.039 138.583Z" fill="#CCA678"/>
<path d="M875.004 254.297C874.731 254.497 874.458 254.697 874.203 254.915C873.966 255.115 873.711 255.333 873.493 255.551C873.256 255.751 873.037 255.969 872.837 256.187C872.418 256.605 872.054 257.06 871.726 257.496C871.235 258.169 870.834 258.86 870.524 259.605C870.306 260.096 870.124 260.587 869.978 261.078C869.814 261.605 869.705 262.132 869.614 262.641V262.677C869.341 264.241 869.304 265.968 869.395 267.84C868.758 267.35 868.157 266.768 867.611 266.168C867.338 265.859 867.064 265.532 866.828 265.186C866.336 264.514 865.917 263.805 865.608 263.059C865.444 262.677 865.316 262.296 865.189 261.932C864.861 260.841 864.752 259.751 864.897 258.642L866.555 245.952V246.007L868.631 252.497L874.968 254.297H875.004Z" fill="#CCA678"/>
<path d="M886.986 198.285C886.422 198.831 885.821 199.358 885.165 199.812C884.2 200.539 883.162 201.158 882.033 201.739C881.287 202.121 880.54 202.448 879.739 202.776C874.713 204.721 868.794 205.303 863.313 204.503C860.527 204.085 857.85 203.321 855.501 202.194C853.826 201.376 852.278 200.394 850.966 199.212C853.334 199.849 855.628 200.358 857.886 200.739C865.353 202.048 872.345 201.994 879.702 200.358C881.287 199.994 882.889 199.576 884.51 199.085C885.329 198.831 886.131 198.558 886.968 198.267L886.986 198.285Z" fill="#CCA678"/>
<path d="M947.135 166.18C946.898 166.089 946.68 165.962 946.498 165.762C946.37 165.635 946.243 165.489 946.133 165.307C944.859 163.253 945.041 158.163 946.425 153.618L946.771 155.072L948.228 161.544C948.483 161.399 948.737 161.253 948.974 161.108C949.466 160.799 949.939 160.472 950.376 160.144C950.595 159.963 950.813 159.781 951.032 159.599C951.232 159.417 951.433 159.217 951.633 159.017C954.073 156.581 955.348 153.272 954.947 149.291C954.893 148.8 954.82 148.309 954.71 147.8C962.231 152.563 951.76 167.725 947.08 166.144L947.135 166.18Z" fill="#CCA678"/>
<path d="M918.508 192.013C918.508 183.796 919.656 176.706 918.162 169.052C917.106 163.762 916.141 158.799 917.015 153.127C921.076 165.507 924.081 178.924 918.508 191.995V192.013Z" fill="#CCA678"/>
<path d="M895.782 267.968C895.4 267.459 895.072 266.931 894.78 266.404C894.343 265.604 893.979 264.768 893.688 263.914C893.579 263.623 893.488 263.332 893.396 263.041C893.233 262.459 893.069 261.878 892.941 261.296C892.413 258.951 892.213 256.587 891.976 254.369L885.457 255.678L894.161 242.807L895.764 267.968H895.782Z" fill="#CCA678"/>
<path d="M930.254 138.892C928.433 138.129 926.703 137.583 924.9 137.165C924.299 137.02 923.717 136.893 923.097 136.784C922.478 136.674 921.877 136.565 921.24 136.493C920.275 136.365 919.31 136.275 918.272 136.202C917.234 136.129 916.159 136.093 915.012 136.056C915.285 135.438 915.631 134.875 916.032 134.347C917.999 131.748 921.331 130.402 924.682 130.857C925.155 130.93 925.629 131.021 926.102 131.166C926.994 131.421 927.869 131.839 928.706 132.366L921.914 133.984C922.442 134.075 922.952 134.166 923.425 134.275C925.592 134.693 927.304 135.166 928.561 136.311C928.706 136.42 928.852 136.565 928.961 136.711C929.507 137.274 929.926 137.983 930.236 138.874L930.254 138.892Z" fill="#CCA678"/>
<path d="M941.508 147.673L939.305 167.743C939.25 168.271 937.411 168.18 937.411 167.671C937.411 166.78 937.447 165.871 937.484 164.962C937.556 163.126 937.684 161.253 937.884 159.381C938.358 154.654 939.195 149.818 940.415 145.31C940.525 145.364 940.634 145.51 940.761 145.692C940.943 145.928 941.107 146.237 941.235 146.564C941.308 146.71 941.362 146.855 941.417 147.001C941.508 147.273 941.545 147.51 941.526 147.691L941.508 147.673Z" fill="#CCA678"/>
<path d="M852.423 114.041C850.493 113.623 848.636 113.332 846.778 113.132C844.01 112.823 841.26 112.714 838.292 112.823C836.143 112.896 833.885 113.059 831.445 113.314H831.39C831.736 113.005 832.21 112.696 832.738 112.423C833.284 112.132 833.903 111.877 834.595 111.641C835.051 111.496 835.542 111.35 836.052 111.205C839.057 110.441 842.79 110.114 845.977 110.569C846.669 110.678 847.324 110.805 847.962 110.968C848.071 111.005 848.199 111.041 848.308 111.078C848.453 111.114 848.599 111.168 848.763 111.223C849.182 111.368 849.583 111.532 849.947 111.732C850.511 112.005 850.985 112.332 851.385 112.714C851.804 113.095 852.132 113.55 852.369 114.023L852.423 114.041Z" fill="#CCA678"/>
<path d="M905.488 210.502C904.905 210.284 904.395 210.011 903.886 209.684C903.394 209.338 902.939 208.957 902.538 208.539C900.826 206.739 899.97 204.139 900.553 201.448C900.662 200.885 900.844 200.339 901.099 199.758V199.794L905.506 210.502H905.488Z" fill="#CCA678"/>
<path d="M414.484 240.335C413.974 240.389 413.446 240.389 412.936 240.426C409.804 240.607 406.654 240.844 403.558 241.135C407.218 240.862 410.824 240.626 414.484 240.389C418.09 240.207 421.75 240.007 425.447 239.88C434.443 239.553 443.402 239.371 452.362 239.371C443.402 239.371 434.461 239.517 425.447 239.844C421.787 239.989 418.126 240.117 414.484 240.353V240.335Z" fill="#CCA678"/>
<path d="M256.364 262.859C261.7 262.259 267.145 261.55 272.59 260.75C276.195 260.15 279.801 259.587 283.425 258.932C279.819 259.532 276.214 260.096 272.59 260.714C267.145 261.514 261.755 262.205 256.364 262.859Z" fill="#CCA678"/>
<path d="M501.438 158.581L526.04 157.181L525.949 179.833L526.095 157.145L501.438 158.545V158.581Z" fill="#CCA678"/>
<path d="M569.545 252.515C563.736 251.024 557.872 249.661 551.972 248.497C557.872 249.715 563.736 251.079 569.545 252.515Z" fill="#CCA678"/>
<path d="M104.691 244.043C104.691 244.043 104.837 244.134 104.873 244.189C106.985 245.17 109.098 246.061 111.156 246.952C109.007 246.025 106.84 245.025 104.691 244.043Z" fill="#CCA678"/>
<path d="M495.338 240.862C491.878 240.589 488.4 240.353 484.885 240.207C488.691 240.444 492.479 240.68 496.23 240.953C495.957 240.898 495.629 240.862 495.338 240.862Z" fill="#CCA678"/>
<path d="M498.288 241.098C497.96 241.044 497.578 241.007 497.25 241.007C496.922 241.007 496.54 241.007 496.212 240.953C500.018 241.225 503.751 241.553 507.557 241.934C504.461 241.607 501.365 241.335 498.27 241.098H498.288Z" fill="#CCA678"/>
<path d="M601.085 159.199H601.14L612.849 140.565L601.085 159.199Z" fill="#CCA678"/>
<path d="M704.447 117.931L729.012 116.659V116.622L704.447 117.931Z" fill="#CCA678"/>
<path d="M470.499 225.936C470.317 206.139 472.702 186.432 468.441 168.471C463.142 146.146 440.652 132.62 419.929 134.166C398.459 135.765 377.736 153.218 378.3 176.142L379.229 216.392L401.865 215.792L402.575 174.234C402.757 162.344 416.924 156.163 426.284 157.581C436.318 159.072 446.443 166.525 446.862 178.633L448.501 225.846C405.707 225.046 364.224 229.172 321.284 236.553C249.044 249.006 159.558 261.405 98.5723 225.936C119.623 228.045 136.45 224.627 149.142 210.629C161.416 223.028 176.148 227.1 192.92 225.136C206.322 223.537 219.725 215.629 227.975 199.812C243.308 228.173 276.869 234.681 303.019 217.083C324.635 230.699 354.299 226.718 368.649 206.466C367.993 200.103 357.304 193.686 352.533 196.413C342.59 202.03 333.412 207.739 323.56 200.576L361.857 171.416C365.28 168.834 370.051 167.289 371.417 164.816C376.661 154.981 353.753 127.657 322.286 134.729C306.297 138.292 293.368 150.455 287.559 168.143C281.276 187.287 292.767 197.867 288.269 199.685L280.675 202.776C269.713 207.23 256.965 203.939 250.774 194.304C245.893 186.723 244.819 174.27 251.011 165.762C256.455 158.326 267.127 155.236 278.763 156.636L283.734 133.893C257.348 130.53 237.662 139.547 226.882 160.09C220.654 143.146 205.503 134.257 191.117 133.22C174.892 132.093 160.269 137.202 149.871 150.855C134.629 131.893 109.881 128.439 90.7236 139.292C71.0383 150.436 63.8088 172.706 68.4524 195.922C62.4066 205.848 43.5226 207.72 33.5798 200.83C23.1817 193.631 21.5792 180.233 25.7129 170.652C30.5933 159.272 42.5938 155.581 55.1043 157.036L62.9712 135.747C38.2598 128.257 11.8367 140.619 2.96827 164.253C-5.37204 186.523 4.24299 212.502 27.4793 223.409C46.418 232.208 67.8879 227.154 83.312 213.956L94.1472 229.772C120.352 248.116 150.727 260.15 183.341 260.041L243.49 259.805L314.929 248.988C348.636 243.843 380.558 237.989 414.721 235.844C461.175 232.936 507.539 234.535 553.192 243.752L576.574 248.479C543.668 232.572 507.575 228.445 470.499 225.918V225.936ZM309.575 176.706C309.903 173.343 310.977 170.107 312.671 167.198C312.907 166.78 313.18 166.362 313.472 165.925C313.763 165.489 314.036 165.089 314.309 164.707C315.202 163.489 316.24 162.326 317.405 161.253C317.879 160.781 318.389 160.362 318.953 159.944C319.281 159.672 319.663 159.381 320.028 159.199C320.119 159.108 320.21 159.054 320.301 159.017C320.774 158.69 321.229 158.454 321.757 158.181C321.994 157.999 322.267 157.854 322.595 157.708L324.289 156.999C324.708 156.817 325.09 156.672 325.563 156.581C325.618 156.49 325.709 156.49 325.746 156.527C326.255 156.345 326.784 156.199 327.293 156.108C328.186 155.927 329.023 155.727 329.916 155.636C330.189 155.581 330.517 155.545 330.844 155.545C332.21 155.399 333.612 155.399 335.069 155.599C335.16 155.599 335.306 155.599 335.452 155.654C335.597 155.654 335.725 155.654 335.87 155.709C336.471 155.799 337.236 155.89 337.892 156.09C338.037 156.145 338.165 156.181 338.365 156.236C339.167 156.418 339.913 156.708 340.714 156.981C341.279 157.163 341.88 157.454 342.444 157.781C342.718 157.872 343.009 158.017 343.282 158.199C342.481 158.708 341.68 159.272 340.896 159.835C339.294 160.908 337.764 162.035 336.253 163.108C334.559 164.326 332.92 165.544 331.373 166.798C330.098 167.725 328.932 168.725 327.767 169.652C327.384 169.925 327.057 170.216 326.729 170.489C325.746 171.325 324.762 172.179 323.779 173.016C322.795 173.852 321.849 174.706 320.865 175.597C319.936 176.433 318.935 177.324 318.006 178.215C316.731 179.433 315.475 180.651 314.164 181.905C312.889 183.178 311.578 184.487 310.321 185.796C309.484 182.76 309.283 179.669 309.575 176.724V176.706ZM195.761 154.709C196.034 154.8 196.361 154.89 196.653 155.036C197.582 155.363 198.437 155.836 199.239 156.399C199.384 156.49 199.512 156.581 199.658 156.672C199.749 156.727 199.803 156.727 199.84 156.817C200.113 156.999 200.404 157.236 200.641 157.472C200.732 157.563 200.823 157.617 200.878 157.708C201.06 157.945 201.296 158.181 201.479 158.417C201.661 158.563 201.806 158.744 201.897 158.926L201.988 159.017L202.043 159.108C204.101 162.108 205.649 165.38 206.687 168.798V168.852C207.197 170.579 207.579 172.307 207.852 174.088C208.089 175.87 208.235 177.651 208.235 179.469C208.235 180.596 208.18 181.669 208.089 182.796C208.034 183.542 207.943 184.251 207.852 184.941C207.761 185.65 207.615 186.341 207.47 187.05C207.324 187.759 207.197 188.45 206.996 189.159C206.851 189.868 206.668 190.522 206.432 191.213C203.718 200.049 195.597 205.248 187.165 204.084C192.738 197.249 195.141 188.414 189.697 180.869C187.02 171.834 185.617 164.816 184.579 153.727C188.185 153.218 192.264 153.454 195.742 154.709H195.761ZM161.398 175.579C161.543 174.833 161.671 174.034 161.871 173.288C161.926 173.052 161.962 172.816 162.053 172.543C162.436 171.088 162.855 169.689 163.419 168.38C164.694 165.344 166.333 162.617 168.39 160.326C168.9 159.672 169.465 159.163 170.029 158.69C170.503 158.217 170.958 157.799 171.486 157.417C171.759 157.236 171.996 157.036 172.287 156.854C172.761 156.472 173.271 156.145 173.781 155.872C173.963 155.727 174.163 155.636 174.345 155.599C174.764 155.327 175.238 155.09 175.711 154.89C176.931 154.327 178.188 153.854 179.608 153.581C179.99 153.491 180.409 153.4 180.828 153.345C181.393 153.254 181.957 153.163 182.522 153.109C182.048 153.581 181.684 154 181.302 154.472C180.646 155.181 180.136 155.963 179.663 156.727C179.426 157.054 179.244 157.381 179.098 157.763C178.861 158.181 178.679 158.654 178.497 159.126C178.315 159.635 178.115 160.163 178.024 160.672C177.878 160.944 177.842 161.271 177.787 161.562C177.641 162.126 177.55 162.689 177.514 163.253C177.368 164.889 177.423 166.525 177.787 168.216C177.878 168.78 178.024 169.343 178.169 169.943C178.443 171.07 178.825 172.234 179.298 173.361C179.535 173.961 179.808 174.524 180.045 175.088C180.555 176.251 181.174 177.379 181.83 178.506C182.631 179.578 183.378 180.651 184.033 181.742C185.581 184.505 186.473 187.305 186.746 190.123C186.837 191.341 186.837 192.559 186.692 193.777C186.601 194.431 186.455 195.086 186.309 195.74C186.218 196.158 186.073 196.576 185.927 197.013C185.545 198.14 185.089 199.212 184.434 200.249C183.924 201.085 183.305 201.885 182.649 202.685C182.376 202.957 182.139 203.248 181.811 203.521C181.484 203.903 181.101 204.23 180.737 204.557C179.99 204.503 179.244 204.412 178.534 204.321C177.823 204.23 177.168 204.085 176.476 203.903C176.239 203.848 176.057 203.812 175.911 203.757C175.401 203.612 174.928 203.485 174.509 203.285C174.363 203.23 174.236 203.194 174.09 203.139C173.344 202.866 172.597 202.539 171.887 202.157C171.377 201.885 170.849 201.594 170.394 201.321C170.066 201.085 169.683 200.849 169.41 200.576C169.028 200.339 168.7 200.067 168.372 199.776C167.99 199.54 167.662 199.212 167.389 198.885C166.824 198.412 166.351 197.903 165.987 197.34C165.75 197.104 165.568 196.867 165.422 196.631C165.331 196.576 165.277 196.485 165.277 196.395C165.094 196.122 164.894 195.885 164.712 195.595C164.475 195.358 164.33 195.086 164.202 194.795C163.965 194.467 163.783 194.086 163.601 193.722C163.037 192.74 162.618 191.668 162.29 190.595C162.053 189.995 161.871 189.377 161.726 188.777C161.452 187.705 161.216 186.632 161.125 185.541C161.034 185.069 161.034 184.65 160.979 184.178C160.888 183.051 160.833 181.924 160.888 180.76C160.979 179.033 161.125 177.306 161.452 175.615L161.398 175.579ZM117.147 153.345C117.893 153.345 118.604 153.4 119.296 153.491C119.623 153.491 119.951 153.545 120.224 153.636C120.552 153.636 120.825 153.727 121.117 153.818C121.954 153.963 122.81 154.2 123.593 154.472C123.83 154.563 124.067 154.654 124.249 154.709C124.631 154.854 124.959 154.981 125.232 155.181C125.888 155.454 126.452 155.781 127.053 156.163C127.982 156.763 128.874 157.472 129.73 158.272C130.295 158.835 130.859 159.435 131.369 160.053C131.933 160.762 132.498 161.599 133.008 162.435C133.9 163.98 134.647 165.762 135.266 167.634C135.648 168.907 135.922 170.252 136.104 171.652C137.269 180.16 136.577 190.741 131.933 197.631C131.551 198.194 131.132 198.703 130.713 199.231C130.295 199.703 129.821 200.158 129.348 200.503C129.111 200.685 128.929 200.885 128.692 201.012C128.637 201.103 128.546 201.158 128.455 201.158C128.073 201.43 127.745 201.667 127.381 201.903C126.671 202.376 125.888 202.739 125.123 203.066C124.704 203.212 124.322 203.394 123.957 203.485C123.211 203.721 122.501 203.903 121.754 204.048C121.663 204.103 121.608 204.103 121.517 204.103C121.244 204.157 121.007 204.194 120.771 204.194C119.933 204.284 119.077 204.284 118.33 204.248C117.62 204.194 116.965 204.066 116.364 203.83C116.036 203.739 115.763 203.648 115.526 203.503V203.448L115.945 202.285C130.204 188.286 114.015 177.07 111.21 154.091C113.268 153.581 115.235 153.345 117.11 153.382L117.147 153.345ZM95.8771 197.34C95.604 196.958 95.3672 196.594 95.1305 196.213C94.7481 195.704 94.4203 195.14 94.1472 194.613C93.8194 194.049 93.5462 193.449 93.2548 192.831C92.9817 192.322 92.745 191.795 92.5993 191.286C92.4172 190.722 92.2169 190.213 92.0348 189.65C91.707 188.668 91.4702 187.596 91.2335 186.559C91.0878 185.85 90.9968 185.196 90.8511 184.505C90.76 183.796 90.7054 183.105 90.6144 182.396C90.5597 181.978 90.5233 181.56 90.5233 181.124C90.4687 180.705 90.4687 180.233 90.4687 179.815C90.3776 178.597 90.3776 177.342 90.414 176.015C90.4687 174.652 90.5961 173.343 90.8329 172.034C91.015 171.052 91.3064 170.016 91.5795 169.034C91.8162 168.198 92.0894 167.398 92.4172 166.653C93.3459 164.398 94.6753 162.344 96.2231 160.617C96.7876 160.017 97.3522 159.453 97.9531 158.926C98.554 158.399 99.2096 157.945 99.8834 157.472C100.357 157.199 100.776 156.908 101.249 156.672C101.632 156.49 101.996 156.29 102.378 156.163C102.852 155.927 103.362 155.745 103.871 155.563C104.709 155.236 105.601 155.054 106.548 154.854C106.457 155.181 106.366 155.509 106.312 155.781C106.221 156.108 106.13 156.436 106.038 156.763C105.893 157.363 105.765 158.035 105.656 158.635C105.474 159.853 105.383 161.017 105.383 162.199C105.383 177.033 119.532 187.741 114.907 200.049C114.816 200.376 114.488 200.703 113.213 202.194C112.794 202.576 112.084 202.903 111.156 203.176C110.646 203.321 110.081 203.412 109.462 203.557C108.989 203.612 108.479 203.648 107.969 203.703C105.492 203.939 102.724 203.703 101.176 202.776C100.994 202.685 100.849 202.594 100.703 202.503C99.7195 201.667 98.7726 200.812 97.9895 199.921C97.2065 199.031 96.4963 198.194 95.8771 197.303V197.34Z" fill="#CCA678"/>
<path d="M612.849 140.565L601.121 159.181H601.067C598.262 158.526 595.021 158.017 591.689 157.781C586.244 157.399 580.635 157.872 576.082 160.126C575.044 160.635 573.97 161.435 572.95 162.417C568.452 166.58 564.227 174.306 564.227 180.251L564.173 227.882L539.097 225.3C538.351 225.209 537.604 225.155 536.839 225.155C534.581 224.973 532.341 224.973 530.047 224.973C525.64 224.973 521.178 225.064 516.79 224.646C516.225 224.591 515.661 224.5 515.096 224.464C512.893 224.137 510.689 223.718 508.486 223.009C507.357 222.591 506.228 222.173 505.117 221.646C503.988 221.137 502.913 220.573 501.839 219.919C500.765 219.21 499.69 218.465 498.598 217.628C497.56 216.828 496.54 215.901 495.502 214.956C493.954 213.465 492.461 211.829 490.913 209.993C490.913 209.993 490.967 209.993 490.913 209.938C487.908 206.284 485.104 202.03 483.137 197.358C481.534 193.468 480.46 189.304 480.333 185.105L478.785 134.002L501.803 133.947L501.42 158.508L526.077 157.108L525.931 179.797L501.748 181.105V181.16C502.64 184.669 504.097 188.741 505.882 192.159C506.483 193.286 507.156 194.358 507.812 195.286C508.285 195.94 508.741 196.504 509.214 197.013C509.724 197.522 510.197 197.94 510.707 198.322C520.559 205.303 538.405 202.721 540.572 200.376C540.663 200.321 540.718 200.23 540.754 200.14C540.991 199.485 541.173 198.74 541.319 197.94C541.501 197.14 541.592 196.249 541.701 195.358C541.792 194.431 541.847 193.431 541.883 192.45C542.029 189.868 542.065 187.014 542.157 183.978C542.211 182.76 542.248 181.596 542.339 180.324C542.393 179.615 542.43 178.96 542.484 178.269C542.666 176.306 542.903 174.288 543.231 172.288C543.377 171.579 543.468 170.925 543.613 170.234C543.85 169.071 544.123 167.889 544.451 166.671C545.999 161.017 548.676 155.29 553.174 150.109C553.684 149.455 554.303 148.837 554.904 148.237C556.688 146.364 558.746 144.583 561.132 142.91C576.592 131.911 595.822 129.712 612.831 140.529L612.849 140.565Z" fill="#CCA678"/>
<path d="M694.595 169.125C689.205 148.437 673.216 135.238 655.024 133.239C634.264 130.948 617.238 142.419 608.569 161.417C600.411 179.342 603.562 199.321 617.383 213.592C629.384 225.991 650.052 232.118 667.352 222.21L673.689 218.61C674.727 218.01 676.694 225.3 677.86 225.3H696.616C697.272 205.793 699.202 186.832 694.595 169.143V169.125ZM665.44 198.031C664.93 198.503 664.366 198.922 663.747 199.34C663.182 199.758 662.581 200.14 661.926 200.467C661.325 200.885 660.651 201.212 659.959 201.503C659.303 201.885 658.593 202.157 657.901 202.394C650.216 205.193 640.838 204.739 634.228 198.085C629.548 193.413 627.344 187.177 627.344 180.996C627.344 180.16 627.399 179.269 627.49 178.415C627.581 177.579 627.672 176.724 627.872 175.888C628.018 175.179 628.145 174.524 628.382 173.87C628.437 173.488 628.564 173.125 628.71 172.797C629.092 171.634 629.511 170.507 630.076 169.471C630.258 169.052 630.495 168.634 630.786 168.198C631.114 167.598 631.442 167.034 631.824 166.507C632.297 165.798 632.862 165.107 633.426 164.489C633.991 163.835 634.556 163.18 635.211 162.617C636.049 161.817 636.996 161.126 637.979 160.472C638.962 159.872 640.037 159.254 641.111 158.781C642.75 158.036 644.353 157.526 645.937 157.145C647.485 156.763 649.033 156.636 650.526 156.636C656.153 156.581 661.215 158.835 665.112 162.58C665.823 163.235 666.515 163.98 667.134 164.78C667.461 165.162 667.735 165.526 668.062 165.944C668.627 166.78 669.191 167.634 669.665 168.525C675.292 178.688 675.292 189.723 665.495 198.013L665.44 198.031Z" fill="#CCA678"/>
<path d="M595.549 260.223C587.446 258.769 579.324 257.46 571.22 256.242C565.885 255.442 560.494 254.697 555.14 253.988C547.037 252.951 538.97 252.024 530.903 251.279C525.567 250.77 520.268 250.297 514.914 249.915H514.823C486.324 247.807 457.861 247.479 429.471 249.261C429.144 249.315 428.761 249.315 428.397 249.352C423.808 249.624 419.164 249.952 414.521 250.424C414.102 250.424 413.628 250.479 413.118 250.515C406.18 251.17 399.206 251.915 392.268 252.86C391.521 252.951 390.72 253.042 389.919 253.188C385.748 253.697 381.524 254.351 377.353 255.006C366.846 256.696 356.302 258.66 345.759 260.987L263.157 275.167C241.122 278.966 213.279 279.621 186.054 275.967C183.341 275.585 180.61 275.167 177.896 274.749C169.738 273.349 161.726 271.567 154.041 269.368C150.198 268.24 146.392 267.022 142.75 265.713H142.696C140.256 264.786 137.87 263.895 135.485 262.914C131.97 261.369 128.492 259.787 125.214 258.096C123.01 256.933 120.898 255.715 118.84 254.497C116.783 253.224 114.761 251.879 112.794 250.57C109.99 248.516 107.35 246.407 104.873 244.152C104.818 244.098 104.727 244.062 104.691 244.007C159.722 269.422 213.625 269.222 272.59 260.66C291.856 257.533 310.795 254.115 329.734 250.933C342.39 248.788 354.991 246.77 367.647 245.043C373.985 244.207 380.358 243.407 386.732 242.698C389.919 242.316 393.16 241.989 396.347 241.716C405.962 240.826 415.668 240.117 425.465 239.789C456.022 238.717 486.397 239.28 516.207 242.789C528.262 244.152 540.153 246.025 551.972 248.443C557.872 249.606 563.736 250.97 569.545 252.46C578.304 254.715 586.99 257.242 595.567 260.187L595.549 260.223Z" fill="#CCA678"/>
<path d="M729.012 116.622V224.955L705.393 225.173L704.447 117.931L729.012 116.622Z" fill="#CCA678"/>
<path d="M177.769 168.18C177.386 166.489 177.35 164.853 177.496 163.217C177.35 164.853 177.441 166.489 177.769 168.18Z" fill="#CCA678"/>
<path d="M182.54 153.109C182.066 153.527 181.648 154 181.265 154.472C181.648 154 182.012 153.581 182.485 153.109H182.54Z" fill="#CCA678"/>
<path d="M181.848 178.469C182.686 179.542 183.396 180.615 183.997 181.705C183.341 180.633 182.595 179.56 181.793 178.469C181.138 177.342 180.519 176.215 180.009 175.052C180.573 176.215 181.174 177.342 181.83 178.469H181.848Z" fill="#CCA678"/>
<path d="M184.416 200.194C185.016 199.158 185.545 198.085 185.909 196.958C185.526 198.085 185.071 199.158 184.416 200.194Z" fill="#CCA678"/>
<path d="M206.687 168.798C205.649 165.38 204.101 162.108 202.043 159.108C201.988 159.017 201.952 158.963 201.897 158.926C201.988 158.981 202.043 159.072 202.079 159.108C204.137 162.108 205.685 165.38 206.668 168.798H206.687Z" fill="#CCA678"/>
<path d="M206.687 168.834C207.251 170.561 207.615 172.288 207.852 174.07C207.579 172.288 207.197 170.561 206.687 168.834Z" fill="#CCA678"/>
<path d="M106.566 154.89H106.62C106.475 155.218 106.384 155.545 106.348 155.818C106.403 155.545 106.493 155.218 106.584 154.89H106.566Z" fill="#CCA678"/>
<path d="M115.981 202.248L115.562 203.412L113.213 202.248C114.47 200.758 114.816 200.43 114.907 200.103L115.981 202.248Z" fill="#CCA678"/>
<path d="M135.284 167.616C134.683 165.744 133.918 163.962 133.026 162.417C133.955 163.962 134.72 165.744 135.284 167.616Z" fill="#CCA678"/>
<path d="M317.405 161.217C317.879 160.744 318.389 160.326 318.953 159.944C318.389 160.363 317.879 160.781 317.405 161.253V161.199V161.217Z" fill="#CCA678"/>
<path d="M343.318 158.126C343.318 158.126 343.264 158.126 343.264 158.181C342.991 157.999 342.699 157.854 342.426 157.763C342.699 157.854 343.027 157.999 343.318 158.145V158.126Z" fill="#CCA678"/>
<path d="M645.901 157.181C644.298 157.563 642.714 158.072 641.075 158.817C640 159.29 638.926 159.89 637.943 160.508C638.926 159.853 639.964 159.29 641.075 158.781C642.714 158.072 644.316 157.526 645.901 157.181Z" fill="#CCA678"/>
<path d="M8.54065 79.0268C8.54065 55.9387 26.2957 39.7225 50.4971 39.7225C65.2293 39.7225 76.8656 45.0855 84.2772 54.757L68.2522 69.0462C63.8453 63.4651 58.5643 60.2291 51.7901 60.2291C41.2463 60.2291 34.1443 67.5373 34.1443 79.0268C34.1443 90.5164 41.2463 97.8246 51.7901 97.8246C58.5643 97.8246 63.8453 94.6068 68.2522 89.0074L84.2772 103.297C76.8474 112.968 65.2293 118.331 50.4971 118.331C26.2957 118.331 8.54065 102.115 8.54065 79.0268Z" fill="#CCA678"/>
<path d="M141.84 103.515H113.213L108.151 116.622H82.3287L115.253 41.4314H140.219L173.143 116.622H146.884L141.822 103.515H141.84ZM134.847 85.2443L127.527 66.3375L120.206 85.2443H134.847Z" fill="#CCA678"/>
<path d="M202.608 60.5382V73.4275H234.02V92.5525H202.608V116.604H177.222V41.4314H238.445V60.5564H202.626L202.608 60.5382Z" fill="#CCA678"/>
<path d="M309.12 97.4974V116.622H246.494V41.4314H307.717V60.5563H271.461V69.3553H303.31V87.6076H271.461V97.4974H309.12ZM282.004 35.3048H265.87L280.074 18.1251H303.201L282.004 35.3048Z" fill="#CCA678"/>
</g>
<defs>
<clipPath id="clip0_9_117">
<rect width="1012" height="302" fill="white"/>
</clipPath>
</defs>
</svg>
