<svg width="722" height="234" viewBox="0 0 722 234" fill="none" xmlns="http://www.w3.org/2000/svg">
<g clip-path="url(#clip0_28_2)">
<path d="M703.733 0H18.2665C8.1782 0 0 8.17184 0 18.2523V215.748C0 225.828 8.1782 234 18.2665 234H703.733C713.822 234 722 225.828 722 215.748V18.2523C722 8.17184 713.822 0 703.733 0Z" fill="black"/>
<path d="M696.865 6.46338H24.8075C14.7192 6.46338 6.54102 14.6352 6.54102 24.7157V210.204C6.54102 220.285 14.7192 228.457 24.8075 228.457H696.865C706.954 228.457 715.132 220.285 715.132 210.204V24.7157C715.132 14.6352 706.954 6.46338 696.865 6.46338Z" fill="url(#paint0_linear_28_2)"/>
<path d="M683.311 220.456H36.8117C25.4012 220.456 16.1226 211.185 16.1226 199.783V36.2504C16.1226 24.8488 25.4012 15.5774 36.8117 15.5774H683.323C694.734 15.5774 704.012 24.8488 704.012 36.2504V199.783C704.012 211.185 694.734 220.456 683.323 220.456H683.311ZM36.8117 20.4189C28.0782 20.4189 20.9678 27.5237 20.9678 36.2504V199.783C20.9678 208.51 28.0782 215.615 36.8117 215.615H683.323C692.057 215.615 699.167 208.51 699.167 199.783V36.2504C699.167 27.5237 692.057 20.4189 683.323 20.4189H36.8117Z" fill="#010203"/>
<path d="M669.466 140.378C664.62 142.678 659.751 143.489 654.131 144.506L652.713 153.378C652.374 155.496 652.386 157.299 651.672 159.091C651.151 151.054 651.672 143.138 655.221 136.142L654.106 143.646C666.946 141.528 677.557 133.83 683.832 122.09C690.191 110.228 692.929 96.8535 689.767 83.5153C686.727 70.637 678.805 59.5379 668.472 51.5979C665.166 49.0683 661.725 48.221 657.668 48.3541L630.873 49.2014C636.191 46.2965 641.412 46.6717 646.39 45.2798C635.84 32.4983 628.136 28.5768 612.086 30.1139C599.743 31.3122 591.433 39.3853 589.398 51.4648C605.448 48.1363 620.735 45.3887 637.196 45.9576L608.501 51.8521C600.518 53.4861 592.984 55.5679 585.292 57.9039C583.475 56.8388 581.319 56.3789 579.381 57.1172C569.194 61.0146 559.806 66.086 551.242 72.7672C548.165 75.1758 546.7 78.5891 547.281 82.5712C549.243 95.8247 560.085 113.992 569.605 125.055C570.163 119.088 566.977 114.101 569.242 108.8C569.86 107.384 571.955 107.069 573.179 107.698C572.137 91.6489 574.112 78.8433 587.993 69.705C584.698 68.7004 581.815 69.6203 578.387 69.9229C583.487 65.3114 589.822 65.5534 595.794 65.5776C598.241 64.7425 601.051 63.9315 603.704 63.5079L608.27 62.7817C606.163 61.8376 604.951 61.3414 603.51 59.9979C609.845 59.8405 615.187 61.9465 620.662 64.573C629.056 64.9483 636.542 67.6111 643.968 71.4842C652.616 75.9747 660.054 82.1233 664.511 90.8017C665.904 93.4887 666.086 96.212 664.136 98.9716C669.187 98.8869 673.221 100.896 675.51 104.455C677.812 108.049 677.678 112.77 675.425 116.631C672.688 121.327 670.52 125.951 669.466 131.409C668.848 134.629 667.091 137.703 663.773 138.66C660.696 139.531 657.219 137.401 656.904 133.927C658.6 134.98 660.066 136.069 661.398 136.432C664.063 137.134 667.2 132.547 668 127.149C668.509 123.712 669.769 120.734 671.67 117.89C676.176 111.148 672.857 103.789 669.732 103.801C668.872 103.801 667.346 104.685 666.522 105.423C663.966 107.71 664.197 110.906 663.446 114.537C660.647 110.446 662.21 105.604 666.256 103.462C664.802 102.651 662.852 103.038 661.931 103.983C660.902 105.023 660.563 106.391 660.054 108.727L656.069 107.105L655.79 97.8339C655.657 93.4161 653.925 89.6155 651.199 86.1054L650.145 81.2156L645.712 77.6087C646.596 74.8491 645.021 74.6433 643.507 73.7113C635.985 69.1119 628.063 66.7275 619.427 65.6382C612.389 64.7546 606.429 66.0739 599.84 68.5067C595.322 70.177 590.295 70.5159 586.213 73.5903C581.077 77.4513 577.636 83.7816 577.588 90.4023L578.339 96.9503C574.681 102.639 575.093 108.146 576.546 114.355L584.262 115.469L578.824 118.737L582.93 118.676C579.599 120.891 578.169 123.324 576.91 127.234L574.778 118.991L577.103 119.378C576.583 117.103 576.256 115.747 575.529 114.101L573.106 108.594C572.307 108.376 570.938 109.671 570.889 110.627C570.429 119.342 571.665 127.79 575.25 135.597C576.449 138.187 578.182 139.749 580.737 141.044C579.865 141.589 577.576 141.964 576.728 141.552C576.013 141.201 574.875 140.039 574.584 139.216L570.211 127.222C558.486 116.534 544.531 100.025 542.993 84.2899C542.399 78.3228 543.841 72.3073 548.565 68.4704C558.849 60.1068 571.168 54.8054 584.008 52.4936C586.939 40.7288 594.05 29.8476 605.908 27.0638C614.109 25.1393 624.344 24.3526 633.284 29.2062C639.51 32.5952 644.101 38.7559 647.589 45.5703C656.48 44.1663 665.178 45.0619 672.591 50.3028C686.121 59.8526 694.697 75.1153 695.618 91.7458C696.684 110.7 686.933 132.16 669.478 140.378H669.466Z" fill="black"/>
<path d="M701.057 172.622V175.842C694.697 173.494 688.362 171.46 681.651 169.923L672.833 168.858C674.287 181.918 675.498 193.888 675.135 207.239C666.413 199.202 656.904 198.464 645.748 200.993C638.735 203.559 632.618 207.154 627.203 212.347L625.011 212.964L626.295 211.62L625.774 210.955C621.68 205.556 617.028 200.824 611.71 196.503C601.826 188.43 593.492 178.892 591.869 165.542C593.565 167.03 594.219 168.894 595.043 171.073C597.417 177.306 601.366 182.729 606.029 187.558L619.584 201.574C622.297 204.382 624.647 207.723 626.258 210.87L626.9 211.402C637.935 198.427 654.809 192.739 670.822 200.691L669.853 167.829L660.526 156.573L659.666 162.165C658.37 174.632 652.701 185.755 643.071 193.901L630.171 204.806C632.702 199.88 636.47 196.854 640.358 193.356C653.404 181.652 657.728 167.091 655.826 149.722L654.07 145.692C656.541 145.655 658.637 146.769 660.03 148.814C664.027 154.721 668.291 160.252 673.56 165.07L684.498 167.624C690.143 168.931 695.46 170.613 701.081 172.61L701.057 172.622Z" fill="black"/>
<path d="M562.386 177.391C562.229 177.464 562.071 177.524 561.914 177.597C561.514 177.766 561.102 177.936 560.714 178.117C561.26 177.887 561.829 177.645 562.386 177.415C562.483 177.379 562.58 177.343 562.677 177.294C562.58 177.331 562.471 177.367 562.386 177.403V177.391ZM567.994 175.152C567.328 175.406 566.662 175.673 565.996 175.939C567.025 175.527 568.079 175.128 569.121 174.728C568.745 174.862 568.358 175.007 567.994 175.152ZM565.439 176.145C564.591 176.496 563.731 176.834 562.895 177.185C563.924 176.762 564.954 176.35 565.996 175.927C565.911 175.963 565.814 175.999 565.741 176.011C565.644 176.06 565.535 176.096 565.439 176.132V176.145ZM578.92 175.866C578.593 176.568 578.266 177.27 577.939 177.972C577.782 178.323 577.624 178.65 577.467 179.001C577.964 177.96 578.448 176.907 578.945 175.854H578.92V175.866ZM580.12 170.795C580.192 170.698 580.277 170.577 580.35 170.48C580.265 170.577 580.18 170.698 580.108 170.795H580.12ZM585.571 99.3347L580.313 104.297C579.308 105.253 578.981 107.19 579.151 108.945C578.993 107.202 579.32 105.266 580.326 104.309L585.583 99.3468L585.571 99.3347ZM588.611 191.94C588.611 192.158 588.635 192.4 588.671 192.618C588.647 192.4 588.635 192.158 588.623 191.94H588.611ZM589.071 95.8731H589.108C589.326 95.6794 589.592 95.4979 589.919 95.3284C589.58 95.4979 589.289 95.6915 589.083 95.8731H589.071ZM589.931 95.3284C590.27 95.159 590.658 94.9895 591.082 94.8443C590.658 94.9895 590.27 95.1469 589.931 95.3284ZM590.573 111.378C590.706 111.802 590.767 112.274 590.61 112.419L589.447 113.569L590.622 112.431C590.779 112.274 590.719 111.802 590.573 111.378ZM590.949 109.09C590.949 109.09 590.888 109.114 590.864 109.114C590.694 109.175 590.537 109.211 590.367 109.272C590.561 109.199 590.743 109.151 590.949 109.102C591.155 109.042 591.336 108.993 591.542 108.945C591.336 108.993 591.155 109.042 590.949 109.09ZM593.807 108.509C593.674 108.509 593.553 108.546 593.432 108.582C593.807 108.521 594.195 108.461 594.571 108.412C594.316 108.449 594.062 108.485 593.807 108.509ZM592.305 108.776C592.681 108.703 593.056 108.63 593.432 108.57C593.299 108.57 593.178 108.606 593.056 108.63C592.802 108.679 592.548 108.715 592.305 108.776ZM593.153 101.743C593.153 101.743 593.105 101.743 593.081 101.743C593.129 101.743 593.178 101.743 593.238 101.743C593.299 101.743 593.335 101.743 593.396 101.719C593.311 101.719 593.226 101.743 593.153 101.743ZM597.514 108.195C597.877 108.243 598.204 108.328 598.507 108.437C598.204 108.316 597.865 108.231 597.514 108.195ZM597.986 101.005C597.902 101.005 597.805 101.005 597.72 101.005C597.647 101.005 597.575 101.029 597.502 101.041C597.744 101.017 597.986 100.993 598.217 100.993H597.999L597.986 101.005ZM596.775 101.138C597.005 101.102 597.26 101.066 597.49 101.053C597.441 101.053 597.393 101.053 597.344 101.053C597.151 101.078 596.969 101.102 596.775 101.126V101.138ZM601.124 132.124C601.293 132.124 601.451 132.148 601.596 132.16C601.439 132.136 601.281 132.136 601.124 132.124ZM607.12 133.624C607.12 133.624 607.071 133.6 607.047 133.576C606.865 133.479 606.696 133.37 606.526 133.273C606.732 133.382 606.926 133.503 607.12 133.637C607.12 133.637 607.144 133.637 607.156 133.661L607.12 133.624ZM608.706 135.113C608.828 135.27 608.937 135.416 609.058 135.585C608.949 135.416 608.84 135.258 608.694 135.113H608.706ZM609.785 144.723C610.293 144.433 610.79 144.191 611.299 143.973C610.778 144.179 610.281 144.433 609.772 144.711L609.785 144.723ZM610.899 178.19L609.869 186.057L610.911 178.226V178.19H610.899ZM617.816 130.853L611.274 135.549L617.828 130.865C617.828 130.865 617.912 130.792 617.973 130.768C617.912 130.792 617.864 130.828 617.816 130.853ZM619.051 149.916C620.032 149.698 621.026 149.432 622.031 149.117C621.026 149.432 620.032 149.686 619.051 149.916ZM622.431 130.683C622.237 130.683 622.031 130.659 621.801 130.635C622.019 130.659 622.237 130.683 622.431 130.695C622.503 130.659 622.564 130.623 622.624 130.55C622.552 130.611 622.503 130.647 622.431 130.683ZM624.926 144.288C626.089 144.36 627.058 144.36 627.821 144.372C627.058 144.336 626.101 144.336 624.926 144.288ZM626.258 210.87L625.786 210.955L626.307 211.62L626.9 211.403L626.258 210.87ZM622.612 184.242L628.003 176.253L622.6 184.242H622.612ZM628.051 106.996C628.1 107.178 628.148 107.347 628.209 107.517C628.16 107.347 628.124 107.166 628.063 106.996H628.051ZM630.51 104.66C630.292 104.66 630.086 104.709 629.868 104.733C630.086 104.709 630.292 104.685 630.51 104.66C631.322 104.588 632.182 104.636 633.005 104.781C632.182 104.624 631.322 104.576 630.51 104.648V104.66ZM629.262 104.83C629.262 104.83 629.262 104.83 629.238 104.83C629.335 104.83 629.444 104.793 629.553 104.769C629.662 104.745 629.771 104.733 629.868 104.721C629.795 104.721 629.711 104.721 629.638 104.745C629.517 104.769 629.396 104.793 629.262 104.818V104.83ZM625.532 106.161C625.532 106.161 625.447 106.222 625.398 106.246C625.447 106.222 625.483 106.185 625.532 106.173V106.161ZM632.291 149.517C632.133 149.88 632.024 150.219 631.952 150.57C632.024 150.231 632.145 149.892 632.303 149.541V149.517H632.291ZM631.382 97.6402C632.727 97.4345 634.059 97.0229 635.367 96.4057C634.059 97.0108 632.727 97.4224 631.382 97.6402ZM634.132 91.1285C634.423 91.2495 634.713 91.3705 635.004 91.5037H635.04C634.738 91.3584 634.435 91.2374 634.132 91.1285ZM632.787 90.6201C632.703 90.5838 632.618 90.5596 632.545 90.5475C632.775 90.6201 633.017 90.7048 633.236 90.7896C633.538 90.8864 633.829 91.0074 634.132 91.1406C633.865 91.0074 633.599 90.9106 633.32 90.8138C633.139 90.7411 632.957 90.6927 632.787 90.6201ZM636.191 109.03C636.361 109.09 636.542 109.127 636.712 109.187C636.53 109.127 636.336 109.09 636.179 109.042L636.191 109.03ZM641.654 95.4616C641.569 95.4253 641.46 95.389 641.363 95.3647C641.569 95.4374 641.751 95.51 641.921 95.5826C641.848 95.5342 641.751 95.51 641.654 95.4616ZM642.357 95.8368C642.357 95.8368 642.236 95.7521 642.151 95.7036C642.078 95.6673 642.005 95.631 641.921 95.5947C642.09 95.6673 642.235 95.7642 642.357 95.8489C642.417 95.8973 642.466 95.9336 642.526 95.982C642.466 95.9215 642.417 95.8852 642.357 95.8368ZM654.857 127.936C654.906 126.81 654.991 125.636 655.1 124.462C654.978 125.624 654.894 126.786 654.857 127.936ZM661.544 125.805C661.701 125.733 661.859 125.648 662.004 125.551C661.859 125.636 661.701 125.733 661.544 125.805Z" fill="black"/>
<path d="M624.017 211.354C620.601 209.321 617.488 207.009 614.048 205.266C613.019 204.745 611.953 204.261 610.85 203.862C609.736 203.462 608.585 203.136 607.374 202.894L595.273 200.57C595.007 200.509 594.752 200.461 594.498 200.376C594.001 200.231 593.529 200.025 593.093 199.807C592.754 199.626 592.426 199.42 592.124 199.178C591.845 198.984 591.591 198.766 591.336 198.512C590.815 198.004 590.367 197.435 589.992 196.805C589.774 196.454 589.592 196.091 589.435 195.704C589.362 195.571 589.326 195.45 589.277 195.317C589.047 194.736 588.877 194.131 588.756 193.513C588.696 193.211 588.659 192.908 588.635 192.593C588.599 192.376 588.587 192.133 588.574 191.916C588.356 191.879 588.151 191.855 587.945 191.843C587.521 191.795 587.109 191.77 586.697 191.77C584.553 191.698 582.603 191.988 580.725 192.581C580.386 192.678 580.059 192.799 579.72 192.932C579.054 193.174 578.412 193.465 577.758 193.78C576.788 194.264 575.832 194.82 574.862 195.45C573.264 196.479 571.677 197.701 570.017 199.033C570.138 198.5 570.26 197.967 570.393 197.447C570.659 196.406 570.938 195.389 571.241 194.385C571.386 193.864 571.556 193.368 571.713 192.872C573.651 186.905 576.268 181.482 578.896 175.854C578.896 175.854 578.896 175.854 578.896 175.83L571.628 178.238L533.969 193.199C541.745 187.292 550.212 182.681 559.043 178.807C564.918 176.217 570.962 173.942 577.055 171.824C578.06 171.46 579.078 171.122 580.095 170.771C580.265 170.553 580.422 170.347 580.58 170.129C581.052 169.488 581.5 168.846 581.937 168.18C582.215 167.732 582.506 167.285 582.809 166.849C583.099 166.413 583.402 165.977 583.705 165.554C584.311 164.694 584.965 163.859 585.704 163.085C586.079 162.697 586.479 162.322 586.903 161.971C587.327 161.62 587.787 161.281 588.284 160.967C587.024 163.581 585.801 166.147 584.614 168.689C582.821 172.501 581.113 176.253 579.502 180.018C577.879 183.794 576.352 187.595 574.935 191.492C576.05 191.056 577.164 190.645 578.266 190.282C578.702 190.136 579.138 190.015 579.574 189.882C579.793 189.81 580.023 189.761 580.241 189.701C582.724 189.035 585.195 188.744 587.642 189.12C587.714 189.12 587.787 189.12 587.86 189.156C588.332 189.229 588.793 189.325 589.265 189.459C589.774 189.592 590.27 189.761 590.779 189.967C591.033 190.076 591.288 190.185 591.542 190.306C591.118 191.916 591.118 193.392 591.566 194.639C591.651 194.893 591.772 195.135 591.894 195.365C592.148 195.825 592.475 196.249 592.875 196.624C593.383 197.096 594.001 197.483 594.752 197.786C599.04 199.541 604.867 199.638 611.081 202.01C611.735 202.252 612.389 202.531 613.055 202.833C613.721 203.136 614.375 203.475 615.042 203.838C615.514 204.08 615.974 204.358 616.435 204.661C617.307 205.193 618.179 205.811 619.051 206.501C620.723 207.82 622.382 209.405 624.017 211.33V211.354Z" fill="black"/>
<path d="M644.101 100.364L641.896 107.432C640.915 106.524 640.079 105.471 639.171 104.564C639.074 104.442 638.953 104.334 638.832 104.225C638.614 104.007 638.371 103.801 638.129 103.607C637.899 103.414 637.645 103.232 637.378 103.087C636.978 102.857 636.554 102.663 636.082 102.542C635.44 102.373 634.786 102.288 634.12 102.252C632.69 102.179 631.213 102.361 629.747 102.554C629.747 102.554 629.723 102.554 629.698 102.554C628.33 102.724 626.961 102.905 625.677 102.869C622.964 102.796 621.231 102.591 618.566 104.079L618.118 95.2558C619.124 94.8443 621.062 95.0379 621.97 95.5947C625.095 97.4829 628.269 98.1123 631.382 97.6281C632.727 97.4103 634.059 96.9987 635.367 96.3935C636.034 96.091 636.676 95.7278 637.33 95.3405C637.645 95.1469 638.068 95.0379 638.553 95.0016C638.71 95.0016 638.88 94.9774 639.05 94.9774C639.365 94.9774 639.692 95.0016 640.007 95.05C640.976 95.1711 641.884 95.4616 642.369 95.8247C642.429 95.8731 642.478 95.9094 642.538 95.9699C643.083 96.4783 643.641 97.3981 643.943 98.3422C644.186 99.0685 644.283 99.8068 644.113 100.351L644.101 100.364Z" fill="black"/>
<path d="M602.529 104.636C602.529 104.745 602.444 104.866 602.311 105.011C602.117 105.205 601.826 105.387 601.536 105.544C601.342 105.641 601.16 105.725 601.003 105.762C600.93 105.786 600.845 105.798 600.784 105.798L592.039 105.98C589.592 106.028 587.351 107.069 585.11 108.352C584.614 108.642 584.129 108.933 583.62 109.248C582.869 109.695 582.13 110.155 581.367 110.615C580.858 110.906 580.362 111.196 579.841 111.475C579.708 111.233 579.587 110.954 579.478 110.64C579.405 110.458 579.369 110.264 579.308 110.046C579.308 109.986 579.284 109.925 579.272 109.853C579.211 109.623 579.187 109.381 579.151 109.139C579.151 109.066 579.151 109.018 579.126 108.945C578.957 107.202 579.284 105.253 580.289 104.297L585.546 99.3347C586.067 98.8385 586.649 98.6812 587.23 98.7417C587.375 98.7659 587.521 98.7901 587.654 98.8264C587.993 98.9111 588.32 99.0685 588.635 99.2742C588.744 99.3468 588.865 99.4316 588.986 99.5163C589.059 99.5647 589.107 99.601 589.18 99.6615C589.362 99.8068 589.544 99.9641 589.701 100.134C589.774 100.194 589.846 100.267 589.907 100.339C590.101 100.533 590.282 100.727 590.428 100.932C590.5 101.005 590.561 101.078 590.634 101.15C591.663 102.119 593.468 101.755 595.406 101.38C596.908 101.078 598.483 100.787 599.84 101.15C600.506 101.32 601.112 101.634 601.632 102.191C601.754 102.312 601.875 102.457 601.996 102.615C602.274 102.99 602.517 104.188 602.505 104.636H602.529Z" fill="black"/>
<path d="M635.125 167.502C634.047 168.907 632.86 170.008 631.588 170.867C629.274 172.417 626.658 173.215 623.896 173.712C623.279 173.821 622.649 173.917 622.019 174.002C621.292 174.087 620.577 174.196 619.851 174.268C618.797 174.389 617.743 174.486 616.689 174.559C616.641 174.559 616.592 174.559 616.544 174.559C612.995 174.801 609.482 174.704 605.993 173.857C605.182 173.651 604.37 173.409 603.558 173.131C603.377 173.058 603.195 172.998 603.025 172.913C601.632 172.283 600.47 171.23 599.343 170.141C599.064 169.863 598.798 169.596 598.519 169.33C598.241 169.052 597.962 168.785 597.684 168.519C597.248 168.144 596.824 167.781 596.375 167.454C592.293 164.513 588.744 161.729 586.334 157.154C584.311 153.341 581.367 149.904 580.641 145.062L589.459 159.103C589.798 159.635 590.198 160.119 590.646 160.543C590.791 160.688 590.949 160.833 591.106 160.967C591.421 161.233 591.748 161.487 592.087 161.717C593.795 162.867 595.83 163.629 597.538 164.356C598.459 166.026 599.44 167.515 600.627 168.749C601.293 169.451 602.032 170.068 602.856 170.601C603.885 171.255 605.06 171.739 606.429 172.053C607.435 172.271 608.44 172.465 609.458 172.61C610.475 172.755 611.48 172.852 612.498 172.913C618.603 173.252 624.659 172.041 630.34 169.27L635.161 167.478L635.125 167.502Z" fill="black"/>
<path d="M630.001 146.781C628.317 146.357 626.803 146.249 624.914 146.345L611.48 147.846C608.585 146.636 605.618 146.164 602.638 146.878C601.681 147.096 600.736 147.459 599.779 147.943L598.277 148.137C597.841 148.197 598.011 146.636 598.107 146.212C598.326 145.946 598.544 145.692 598.786 145.474C601.608 142.617 605.63 142.206 609.143 144.312C609.361 144.445 609.554 144.578 609.772 144.723C610.281 144.445 610.778 144.191 611.299 143.985C613.891 142.896 616.544 142.787 619.354 143.465C620.541 143.755 621.619 143.949 622.6 144.07C624.865 144.36 626.585 144.312 627.809 144.372C628.62 144.409 629.214 144.481 629.589 144.748C629.589 144.748 629.674 144.82 629.711 144.844C630.074 145.195 630.159 145.776 629.989 146.769L630.001 146.781Z" fill="black"/>
<path d="M609.07 135.573C607.338 135.053 605.884 134.605 604.491 134.338C604.213 134.278 603.934 134.242 603.655 134.205C602.953 134.109 602.25 134.06 601.511 134.084C600.942 134.109 600.457 134.036 600.034 133.891C599.803 133.818 599.573 133.697 599.367 133.576C599.161 133.455 598.98 133.298 598.81 133.116C598.301 132.583 597.938 131.857 597.635 130.974C597.49 130.538 597.344 130.066 597.211 129.57C597.211 129.57 597.211 129.562 597.211 129.545L594.122 141.443C591.324 135.646 594.801 129.884 599.149 125.249L604.685 119.378C603.474 123.796 599.622 126.858 601.184 132.136C602.444 132.196 603.631 132.317 604.697 132.596C605.06 132.68 605.4 132.801 605.739 132.922C606.89 133.358 607.907 134.048 608.767 135.113C608.9 135.258 609.009 135.416 609.13 135.585L609.07 135.573Z" fill="black"/>
<path d="M635.028 91.5158H634.992C628.39 90.9711 622.649 90.4507 617.077 92.3993C616.532 92.5809 615.986 92.7867 615.453 93.0408C614.908 93.2708 614.363 93.5492 613.83 93.8397C613.552 93.9849 613.285 94.1423 613.019 94.2996C612.425 94.6627 611.165 94.7111 610.063 94.6022C609.736 94.5659 609.421 94.5296 609.143 94.4691C608.949 94.4207 608.779 94.3843 608.622 94.3359C608.016 94.0939 607.435 93.876 606.841 93.6702C606.647 93.5976 606.453 93.5371 606.248 93.4645C606.09 93.4039 605.92 93.3676 605.763 93.3192C605.242 93.1619 604.746 93.0166 604.225 92.8956C600.724 92.0241 597.357 91.8426 593.626 91.9031C595.479 88.623 605.085 91.5884 610.717 93.1619C612.122 92.4357 613.588 91.7942 615.09 91.2616C615.684 91.0437 616.289 90.8501 616.895 90.6685C622.903 88.8893 629.299 88.8409 635.028 91.5158Z" fill="black"/>
<path d="M631.055 136.723C631.14 135.101 630.934 133.6 630.462 132.245C630.34 131.869 630.183 131.494 630.001 131.143C629.759 130.635 629.48 130.175 629.153 129.739C628.947 129.449 628.717 129.17 628.487 128.916C628.33 128.747 628.184 128.589 628.015 128.432C627.349 127.803 626.61 127.27 625.75 126.822C625.629 127.246 625.447 127.936 625.229 128.565C625.12 128.892 624.999 129.194 624.865 129.437C624.793 129.558 624.732 129.667 624.659 129.763C624.587 129.848 624.526 129.933 624.441 129.981L616.665 135.053C616.398 135.234 616.12 135.392 615.853 135.525C615.72 135.597 615.587 135.646 615.453 135.706C614 136.299 612.571 136.239 611.25 135.573L617.791 130.877C617.791 130.877 617.888 130.804 617.949 130.792C618.009 130.756 618.07 130.732 618.143 130.72C618.385 130.623 618.7 130.574 619.039 130.55C619.754 130.502 620.602 130.574 621.377 130.635C621.51 130.635 621.655 130.659 621.777 130.671C621.995 130.695 622.213 130.707 622.406 130.72C622.479 130.683 622.528 130.647 622.6 130.586C623.266 129.921 623.521 127.56 622.939 126.604C622.273 125.515 620.795 124.656 618.978 123.53C619.1 123.3 619.245 123.094 619.402 122.925C619.633 122.683 619.911 122.489 620.214 122.38C621.922 121.714 624.587 122.937 627.07 125.007C627.445 125.321 627.821 125.66 628.184 126.011C628.305 126.12 628.427 126.241 628.548 126.374C629.977 127.815 631.237 129.485 632.036 131.143C632.993 133.092 633.441 135.609 631.043 136.759L631.055 136.723Z" fill="black"/>
<path d="M636.191 109.03C636.361 109.078 636.554 109.114 636.724 109.175C635.295 110.168 632.896 110.894 630.849 110.555C630.377 110.482 629.929 110.349 629.517 110.155C629.396 110.095 629.287 109.998 629.165 109.865C628.947 109.599 628.741 109.175 628.56 108.667C628.487 108.473 628.414 108.267 628.354 108.049C628.245 107.71 628.136 107.359 628.039 106.996L622.285 109.587C622.455 109.211 622.661 108.848 622.891 108.509C623.121 108.17 623.4 107.844 623.69 107.565C623.836 107.408 623.993 107.263 624.151 107.142C625.871 105.653 628.281 104.83 630.522 104.648C631.334 104.576 632.194 104.624 633.017 104.781C633.223 104.818 633.405 104.854 633.599 104.902C633.793 104.951 633.974 104.999 634.156 105.06C634.907 105.29 635.634 105.617 636.3 106.04C636.639 106.258 636.954 106.488 637.245 106.742C637.39 106.863 637.536 107.008 637.669 107.154C638.214 107.71 638.674 108.376 639.001 109.139L634.338 106.694L634.132 108.074C634.095 108.316 634.459 108.497 635.065 108.691C635.198 108.739 635.331 108.763 635.476 108.812C635.694 108.885 635.949 108.945 636.203 109.018L636.191 109.03Z" fill="black"/>
<path d="M640.019 87.4127C633.332 86.7954 627.554 86.0692 621.256 86.6743L608.937 87.8363C618.203 83.7453 630.486 82.668 640.019 87.4127Z" fill="black"/>
<path d="M601.257 111.559L600.518 111.874C600.445 111.91 600.336 111.85 600.239 111.741C600.094 111.584 599.924 111.342 599.731 111.184L598.422 109.95C598.216 109.756 597.623 110.131 597.284 110.506C597.211 110.579 597.163 110.627 597.126 110.688C597.042 110.809 596.981 110.918 596.981 111.015C596.981 111.438 597.163 111.668 597.889 113.036L589.447 113.557L590.609 112.407C590.767 112.261 590.706 111.789 590.573 111.366C590.5 111.136 590.404 110.918 590.295 110.773C590.198 110.652 590.089 110.591 589.992 110.64L584.941 113.193C585.231 112.709 585.57 112.274 585.934 111.886C587.412 110.301 589.41 109.441 591.53 108.945C592.85 108.618 594.219 108.425 595.564 108.279C595.83 108.243 596.085 108.219 596.363 108.195C596.775 108.146 597.163 108.146 597.502 108.195C597.865 108.243 598.192 108.316 598.495 108.437C600.167 109.066 600.978 110.603 601.196 111.257C601.257 111.438 601.269 111.547 601.245 111.559H601.257Z" fill="black"/>
<path d="M616.12 183.37C615.95 183.491 615.781 183.612 615.623 183.746C615.478 183.867 615.32 184 615.187 184.133C615.042 184.254 614.908 184.387 614.787 184.52C614.533 184.774 614.303 185.053 614.109 185.331C613.806 185.743 613.564 186.178 613.358 186.638C613.225 186.941 613.116 187.244 613.019 187.558C612.922 187.885 612.849 188.212 612.801 188.527V188.551C612.631 189.519 612.607 190.584 612.667 191.746C612.28 191.444 611.892 191.08 611.553 190.705C611.383 190.512 611.214 190.318 611.069 190.1C610.766 189.689 610.511 189.241 610.305 188.781C610.209 188.551 610.124 188.309 610.051 188.079C609.845 187.413 609.785 186.723 609.869 186.045L610.899 178.166V178.202L612.183 182.233L616.108 183.346L616.12 183.37Z" fill="black"/>
<path d="M623.557 148.609C623.206 148.948 622.83 149.274 622.431 149.565C621.837 150.013 621.183 150.4 620.492 150.763C620.032 150.993 619.56 151.199 619.075 151.405C615.962 152.615 612.292 152.966 608.9 152.482C607.18 152.228 605.521 151.744 604.055 151.054C603.013 150.545 602.056 149.94 601.245 149.202C602.71 149.589 604.14 149.916 605.533 150.158C610.16 150.969 614.496 150.945 619.063 149.928C620.044 149.71 621.038 149.444 622.043 149.129C622.552 148.972 623.048 148.802 623.569 148.621L623.557 148.609Z" fill="black"/>
<path d="M660.841 128.686C660.696 128.626 660.563 128.553 660.453 128.432C660.381 128.359 660.296 128.262 660.235 128.154C659.436 126.883 659.557 123.724 660.417 120.903L660.635 121.811L661.544 125.83C661.701 125.745 661.859 125.648 662.004 125.563C662.307 125.37 662.598 125.176 662.876 124.97C663.009 124.861 663.143 124.752 663.276 124.631C663.397 124.522 663.518 124.401 663.651 124.268C665.165 122.755 665.953 120.698 665.711 118.241C665.674 117.938 665.638 117.635 665.565 117.309C670.229 120.262 663.736 129.679 660.841 128.686Z" fill="black"/>
<path d="M643.095 144.723C643.095 139.616 643.81 135.222 642.877 130.477C642.223 127.197 641.618 124.111 642.163 120.601C644.682 128.287 646.536 136.614 643.095 144.723Z" fill="black"/>
<path d="M629.008 191.855C628.778 191.54 628.572 191.214 628.39 190.887C628.124 190.391 627.894 189.87 627.724 189.338C627.651 189.156 627.603 188.974 627.542 188.805C627.445 188.442 627.336 188.079 627.264 187.716C626.937 186.263 626.815 184.799 626.67 183.419L622.624 184.23L628.027 176.241L629.02 191.855H629.008Z" fill="black"/>
<path d="M650.375 111.753C649.249 111.281 648.171 110.942 647.056 110.676C646.681 110.591 646.318 110.506 645.942 110.446C645.567 110.373 645.179 110.313 644.791 110.264C644.198 110.192 643.592 110.131 642.95 110.083C642.308 110.034 641.642 110.01 640.939 109.998C641.109 109.623 641.315 109.26 641.569 108.933C642.781 107.323 644.852 106.476 646.935 106.766C647.226 106.803 647.529 106.875 647.82 106.96C648.365 107.117 648.922 107.372 649.431 107.71L645.215 108.715C645.542 108.776 645.857 108.824 646.16 108.897C647.505 109.151 648.571 109.441 649.346 110.155C649.431 110.228 649.528 110.313 649.588 110.397C649.927 110.748 650.182 111.196 650.388 111.741L650.375 111.753Z" fill="black"/>
<path d="M657.353 117.2L655.984 129.654C655.947 129.981 654.809 129.921 654.809 129.606C654.809 129.061 654.833 128.492 654.857 127.924C654.906 126.786 654.978 125.624 655.1 124.45C655.39 121.521 655.911 118.519 656.662 115.723C656.735 115.759 656.795 115.844 656.88 115.953C656.989 116.098 657.098 116.292 657.171 116.486C657.219 116.57 657.244 116.667 657.28 116.752C657.34 116.921 657.353 117.067 657.353 117.176V117.2Z" fill="black"/>
<path d="M602.117 96.3209C600.918 96.0668 599.767 95.8852 598.616 95.7642C596.908 95.5705 595.188 95.51 593.359 95.5705C592.027 95.6189 590.622 95.7157 589.12 95.8731H589.083C589.301 95.6794 589.592 95.4979 589.919 95.3284C590.258 95.1469 590.646 94.9895 591.07 94.8443C591.348 94.7596 591.651 94.6627 591.978 94.578C593.832 94.106 596.157 93.9123 598.132 94.1907C598.556 94.2633 598.968 94.3359 599.367 94.4328C599.44 94.457 599.513 94.4812 599.585 94.5054C599.67 94.5296 599.767 94.5659 599.864 94.5901C600.118 94.6748 600.373 94.7838 600.603 94.9048C600.954 95.0743 601.245 95.28 601.499 95.51C601.754 95.74 601.959 96.0304 602.105 96.3209H602.117Z" fill="black"/>
<path d="M635.016 156.186C634.653 156.052 634.338 155.883 634.023 155.677C633.72 155.459 633.441 155.229 633.187 154.963C632.121 153.85 631.6 152.228 631.951 150.57C632.024 150.218 632.133 149.88 632.291 149.516V149.541L635.028 156.186H635.016Z" fill="black"/>
<path d="M314.14 179.291C313.801 179.328 313.45 179.328 313.111 179.352C311.027 179.473 308.932 179.63 306.873 179.824C309.307 179.642 311.706 179.485 314.14 179.328C316.539 179.207 318.974 179.074 321.432 178.989C327.416 178.771 333.376 178.65 339.336 178.65C333.376 178.65 327.428 178.747 321.432 178.965C318.998 179.061 316.563 179.146 314.14 179.304V179.291Z" fill="black"/>
<path d="M208.975 194.288C212.524 193.888 216.146 193.416 219.768 192.884C222.166 192.484 224.564 192.109 226.975 191.674C224.576 192.073 222.178 192.448 219.768 192.86C216.146 193.392 212.56 193.852 208.975 194.288Z" fill="black"/>
<path d="M371.98 124.873L388.357 123.929L388.285 139.011L388.382 123.905L371.98 124.837V124.873Z" fill="black"/>
<path d="M417.283 187.401C413.419 186.408 409.519 185.501 405.594 184.726C409.519 185.537 413.419 186.445 417.283 187.401Z" fill="black"/>
<path d="M108.073 181.761C108.073 181.761 108.17 181.821 108.194 181.857C109.599 182.511 111.004 183.104 112.373 183.697C110.944 183.08 109.502 182.414 108.073 181.761Z" fill="black"/>
<path d="M367.923 179.642C365.621 179.461 363.308 179.304 360.97 179.207C363.501 179.364 366.021 179.521 368.516 179.703C368.334 179.667 368.116 179.642 367.923 179.642Z" fill="black"/>
<path d="M369.897 179.8C369.679 179.764 369.425 179.739 369.207 179.739C368.988 179.739 368.734 179.739 368.516 179.703C371.048 179.885 373.531 180.102 376.063 180.357C374.003 180.139 371.944 179.957 369.885 179.8H369.897Z" fill="black"/>
<path d="M438.275 125.273H438.3L446.1 112.879L438.275 125.273Z" fill="black"/>
<path d="M507.017 97.7976L523.358 96.9503V96.9261L507.017 97.7976Z" fill="black"/>
<path d="M351.4 169.705C351.279 156.525 352.866 143.404 350.032 131.446C346.507 116.582 331.547 107.577 317.762 108.606C303.481 109.671 289.696 121.291 290.072 136.553L290.69 163.351L305.746 162.952L306.219 135.283C306.34 127.367 315.764 123.252 321.99 124.196C328.664 125.188 335.399 130.151 335.678 138.212L336.768 169.645C308.302 169.112 280.708 171.86 252.146 176.774C204.093 185.065 144.57 193.32 104.003 169.705C118.006 171.109 129.198 168.834 137.641 159.514C145.805 167.769 155.605 170.48 166.761 169.173C175.676 168.108 184.591 162.843 190.078 152.312C200.278 171.194 222.602 175.527 239.996 163.811C254.375 172.877 274.107 170.226 283.652 156.742C283.216 152.506 276.105 148.233 272.932 150.049C266.318 153.789 260.213 157.59 253.66 152.821L279.134 133.407C281.411 131.688 284.585 130.659 285.493 129.013C288.982 122.465 273.743 104.273 252.812 108.981C242.177 111.354 233.576 119.451 229.712 131.228C225.533 143.973 233.177 151.017 230.185 152.228L225.134 154.285C217.842 157.251 209.362 155.06 205.244 148.645C201.998 143.598 201.283 135.307 205.401 129.642C209.023 124.692 216.121 122.634 223.862 123.566L227.169 108.425C209.617 106.185 196.523 112.189 189.352 125.866C185.209 114.585 175.131 108.667 165.561 107.977C154.769 107.226 145.042 110.627 138.125 119.717C127.987 107.093 111.525 104.793 98.7821 112.019C85.6879 119.439 80.879 134.266 83.9678 149.722C79.9463 156.331 67.385 157.578 60.7713 152.99C53.8547 148.197 52.7887 139.277 55.5384 132.898C58.7847 125.321 66.7672 122.864 75.0889 123.833L80.3218 109.659C63.8843 104.672 46.3082 112.903 40.4092 128.638C34.8614 143.465 41.2571 160.761 56.7134 168.023C69.311 173.881 83.5923 170.516 93.8521 161.729L101.059 172.259C118.49 184.472 138.695 192.484 160.389 192.412L200.399 192.254L247.918 185.053C270.34 181.627 291.574 177.73 314.298 176.302C345.198 174.365 376.038 175.43 406.406 181.567L421.959 184.714C400.071 174.123 376.063 171.376 351.4 169.693V169.705ZM244.357 136.929C244.575 134.689 245.29 132.535 246.416 130.598C246.574 130.32 246.755 130.042 246.949 129.751C247.143 129.461 247.325 129.194 247.506 128.94C248.1 128.129 248.79 127.355 249.566 126.641C249.881 126.326 250.22 126.047 250.595 125.769C250.813 125.588 251.068 125.394 251.31 125.273C251.371 125.212 251.431 125.176 251.492 125.152C251.807 124.934 252.109 124.777 252.461 124.595C252.618 124.474 252.8 124.377 253.018 124.28L254.144 123.808C254.423 123.687 254.677 123.59 254.992 123.53C255.029 123.469 255.089 123.469 255.113 123.494C255.453 123.373 255.804 123.276 256.143 123.215C256.737 123.094 257.294 122.961 257.887 122.901C258.069 122.864 258.287 122.84 258.505 122.84C259.414 122.743 260.346 122.743 261.315 122.876C261.376 122.876 261.473 122.876 261.57 122.913C261.667 122.913 261.751 122.913 261.848 122.949C262.248 123.009 262.757 123.07 263.193 123.203C263.29 123.239 263.375 123.264 263.508 123.3C264.041 123.421 264.537 123.615 265.07 123.796C265.446 123.917 265.846 124.111 266.221 124.329C266.403 124.389 266.597 124.486 266.778 124.607C266.245 124.946 265.712 125.321 265.192 125.696C264.126 126.411 263.108 127.161 262.103 127.875C260.976 128.686 259.886 129.497 258.856 130.332C258.009 130.949 257.233 131.615 256.458 132.232C256.204 132.414 255.986 132.608 255.768 132.789C255.113 133.346 254.459 133.915 253.805 134.472C253.151 135.028 252.521 135.597 251.867 136.19C251.249 136.747 250.583 137.34 249.965 137.933C249.118 138.744 248.282 139.555 247.41 140.39C246.562 141.238 245.69 142.109 244.854 142.981C244.297 140.959 244.163 138.902 244.357 136.941V136.929ZM168.65 122.283C168.832 122.344 169.05 122.404 169.244 122.501C169.862 122.719 170.431 123.034 170.964 123.409C171.061 123.469 171.146 123.53 171.243 123.59C171.303 123.627 171.339 123.627 171.364 123.687C171.545 123.808 171.739 123.966 171.897 124.123C171.957 124.184 172.018 124.22 172.054 124.28C172.175 124.438 172.333 124.595 172.454 124.752C172.575 124.849 172.672 124.97 172.732 125.091L172.793 125.152L172.829 125.212C174.198 127.209 175.228 129.388 175.918 131.664V131.7C176.257 132.85 176.512 134 176.693 135.186C176.851 136.372 176.948 137.558 176.948 138.768C176.948 139.519 176.911 140.233 176.851 140.983C176.815 141.48 176.754 141.952 176.693 142.412C176.633 142.884 176.536 143.344 176.439 143.816C176.342 144.288 176.257 144.748 176.124 145.22C176.027 145.692 175.906 146.127 175.749 146.587C173.944 152.47 168.541 155.931 162.933 155.157C166.64 150.606 168.238 144.723 164.617 139.7C162.836 133.685 161.903 129.013 161.213 121.63C163.611 121.291 166.325 121.448 168.638 122.283H168.65ZM145.805 136.178C145.902 135.682 145.987 135.149 146.12 134.653C146.156 134.496 146.181 134.338 146.241 134.157C146.496 133.189 146.774 132.257 147.15 131.385C147.998 129.364 149.088 127.548 150.456 126.023C150.796 125.588 151.171 125.249 151.547 124.934C151.862 124.619 152.164 124.341 152.516 124.087C152.697 123.966 152.855 123.833 153.049 123.711C153.364 123.457 153.703 123.239 154.042 123.058C154.163 122.961 154.296 122.901 154.417 122.876C154.696 122.695 155.011 122.537 155.326 122.404C156.138 122.029 156.973 121.714 157.918 121.533C158.173 121.472 158.451 121.412 158.73 121.375C159.105 121.315 159.481 121.254 159.856 121.218C159.541 121.533 159.299 121.811 159.045 122.126C158.609 122.598 158.269 123.118 157.954 123.627C157.797 123.845 157.676 124.062 157.579 124.317C157.422 124.595 157.3 124.91 157.179 125.224C157.058 125.563 156.925 125.914 156.864 126.253C156.767 126.435 156.743 126.653 156.707 126.846C156.61 127.222 156.549 127.597 156.525 127.972C156.428 129.061 156.465 130.151 156.707 131.276C156.767 131.651 156.864 132.027 156.961 132.426C157.143 133.177 157.397 133.951 157.712 134.702C157.87 135.101 158.051 135.476 158.209 135.851C158.548 136.626 158.96 137.377 159.396 138.127C159.929 138.841 160.426 139.555 160.862 140.281C161.891 142.121 162.485 143.985 162.666 145.861C162.727 146.672 162.727 147.483 162.63 148.294C162.57 148.73 162.473 149.165 162.376 149.601C162.315 149.88 162.218 150.158 162.121 150.448C161.867 151.199 161.564 151.913 161.128 152.603C160.789 153.16 160.377 153.692 159.941 154.225C159.759 154.406 159.602 154.6 159.384 154.782C159.166 155.036 158.911 155.254 158.669 155.471C158.173 155.435 157.676 155.375 157.203 155.314C156.731 155.254 156.295 155.157 155.835 155.036C155.677 154.999 155.556 154.975 155.459 154.939C155.12 154.842 154.805 154.757 154.526 154.624C154.43 154.588 154.345 154.564 154.248 154.527C153.751 154.346 153.255 154.128 152.782 153.874C152.443 153.692 152.092 153.499 151.789 153.317C151.571 153.16 151.317 153.002 151.135 152.821C150.88 152.663 150.662 152.482 150.444 152.288C150.19 152.131 149.972 151.913 149.79 151.695C149.415 151.38 149.1 151.042 148.858 150.666C148.7 150.509 148.579 150.352 148.482 150.194C148.422 150.158 148.385 150.097 148.385 150.037C148.264 149.855 148.131 149.698 148.01 149.504C147.852 149.347 147.755 149.165 147.67 148.972C147.513 148.754 147.392 148.5 147.271 148.258C146.895 147.604 146.617 146.89 146.399 146.176C146.241 145.776 146.12 145.365 146.023 144.966C145.841 144.251 145.684 143.537 145.623 142.811C145.563 142.496 145.563 142.218 145.526 141.903C145.466 141.153 145.43 140.402 145.466 139.628C145.526 138.478 145.623 137.328 145.841 136.202L145.805 136.178ZM116.37 121.375C116.867 121.375 117.339 121.412 117.8 121.472C118.018 121.472 118.236 121.509 118.417 121.569C118.635 121.569 118.817 121.63 119.011 121.69C119.568 121.787 120.137 121.944 120.658 122.126C120.816 122.186 120.973 122.247 121.094 122.283C121.349 122.38 121.567 122.465 121.749 122.598C122.185 122.78 122.56 122.997 122.96 123.252C123.578 123.651 124.171 124.123 124.74 124.656C125.116 125.031 125.491 125.43 125.831 125.842C126.206 126.314 126.582 126.871 126.921 127.427C127.514 128.456 128.011 129.642 128.423 130.889C128.677 131.736 128.859 132.632 128.98 133.564C129.755 139.228 129.295 146.273 126.206 150.86C125.952 151.235 125.673 151.574 125.395 151.925C125.116 152.24 124.801 152.542 124.486 152.772C124.329 152.893 124.207 153.027 124.05 153.111C124.014 153.172 123.953 153.208 123.893 153.208C123.638 153.39 123.42 153.547 123.178 153.704C122.705 154.019 122.185 154.261 121.676 154.479C121.397 154.576 121.143 154.697 120.901 154.757C120.404 154.915 119.932 155.036 119.435 155.133C119.374 155.169 119.338 155.169 119.277 155.169C119.096 155.205 118.938 155.229 118.781 155.229C118.224 155.29 117.654 155.29 117.158 155.266C116.685 155.229 116.249 155.145 115.849 154.987C115.631 154.927 115.45 154.866 115.292 154.769V154.733L115.571 153.959C125.055 144.639 114.287 137.171 112.421 121.872C113.79 121.533 115.098 121.375 116.346 121.4L116.37 121.375ZM102.21 150.666C102.028 150.412 101.871 150.17 101.713 149.916C101.459 149.577 101.241 149.202 101.059 148.851C100.841 148.476 100.66 148.076 100.466 147.665C100.284 147.326 100.127 146.975 100.03 146.636C99.9086 146.261 99.7754 145.922 99.6542 145.546C99.4362 144.893 99.2787 144.179 99.1213 143.489C99.0244 143.017 98.9638 142.581 98.8669 142.121C98.8063 141.649 98.77 141.189 98.7094 140.717C98.6731 140.439 98.6489 140.16 98.6489 139.87C98.6125 139.591 98.6125 139.277 98.6125 138.998C98.552 138.187 98.5519 137.352 98.5762 136.469C98.6125 135.561 98.6973 134.689 98.8548 133.818C98.9759 133.164 99.1697 132.475 99.3514 131.821C99.5089 131.264 99.6906 130.732 99.9086 130.235C100.526 128.734 101.411 127.367 102.44 126.217C102.816 125.818 103.191 125.442 103.591 125.091C103.991 124.74 104.427 124.438 104.875 124.123C105.19 123.941 105.469 123.748 105.783 123.59C106.038 123.469 106.28 123.336 106.534 123.252C106.849 123.094 107.189 122.973 107.528 122.852C108.085 122.634 108.678 122.513 109.308 122.38C109.248 122.598 109.187 122.816 109.151 122.997C109.09 123.215 109.03 123.433 108.969 123.651C108.872 124.05 108.788 124.498 108.715 124.898C108.594 125.709 108.533 126.483 108.533 127.27C108.533 137.147 117.945 144.276 114.868 152.47C114.808 152.688 114.59 152.906 113.742 153.898C113.463 154.152 112.991 154.37 112.373 154.552C112.034 154.648 111.658 154.709 111.246 154.806C110.932 154.842 110.592 154.866 110.253 154.903C108.606 155.06 106.765 154.903 105.735 154.285C105.614 154.225 105.517 154.164 105.42 154.104C104.766 153.547 104.136 152.978 103.615 152.385C103.094 151.792 102.622 151.235 102.21 150.642V150.666Z" fill="black"/>
<path d="M446.1 112.879L438.299 125.273H438.263C436.398 124.837 434.242 124.498 432.025 124.341C428.403 124.087 424.672 124.401 421.644 125.902C420.954 126.241 420.239 126.774 419.561 127.427C416.569 130.199 413.758 135.343 413.758 139.301L413.722 171.013L397.042 169.294C396.546 169.233 396.049 169.197 395.54 169.197C394.038 169.076 392.548 169.076 391.022 169.076C388.091 169.076 385.123 169.136 382.204 168.858C381.828 168.822 381.453 168.761 381.077 168.737C379.612 168.519 378.146 168.241 376.68 167.769C375.929 167.49 375.178 167.212 374.439 166.861C373.688 166.522 372.974 166.147 372.259 165.711C371.544 165.239 370.83 164.743 370.103 164.186C369.412 163.654 368.734 163.036 368.044 162.407C367.014 161.414 366.021 160.325 364.991 159.103C364.991 159.103 365.027 159.103 364.991 159.066C362.992 156.633 361.127 153.801 359.819 150.691C358.753 148.1 358.038 145.329 357.953 142.533L356.924 108.509L372.235 108.473L371.98 124.825L388.381 123.893L388.285 138.998L372.198 139.87V139.906C372.792 142.242 373.761 144.953 374.948 147.229C375.348 147.979 375.796 148.693 376.232 149.311C376.547 149.746 376.85 150.122 377.165 150.461C377.504 150.799 377.819 151.078 378.158 151.332C384.711 155.98 396.582 154.261 398.023 152.7C398.084 152.663 398.12 152.603 398.145 152.542C398.302 152.107 398.423 151.61 398.52 151.078C398.641 150.545 398.702 149.952 398.774 149.359C398.835 148.742 398.871 148.076 398.896 147.423C398.993 145.704 399.017 143.804 399.077 141.782C399.114 140.971 399.138 140.197 399.198 139.349C399.235 138.877 399.259 138.442 399.295 137.982C399.417 136.674 399.574 135.331 399.792 134C399.889 133.528 399.949 133.092 400.046 132.632C400.204 131.857 400.386 131.071 400.604 130.26C401.633 126.495 403.414 122.683 406.406 119.233C406.745 118.797 407.157 118.386 407.556 117.986C408.744 116.74 410.112 115.554 411.699 114.44C421.983 107.117 434.775 105.653 446.088 112.854L446.1 112.879Z" fill="black"/>
<path d="M500.476 131.881C496.89 118.107 486.255 109.32 474.154 107.989C460.345 106.464 449.02 114.101 443.254 126.749C437.827 138.684 439.923 151.986 449.116 161.487C457.099 169.742 470.847 173.821 482.355 167.224L486.57 164.828C487.261 164.428 488.569 169.282 489.344 169.282H501.82C502.257 156.294 503.541 143.67 500.476 131.894V131.881ZM481.083 151.126C480.744 151.441 480.368 151.719 479.956 151.998C479.581 152.276 479.181 152.53 478.745 152.748C478.345 153.027 477.897 153.244 477.437 153.438C477.001 153.692 476.528 153.874 476.068 154.031C470.956 155.895 464.718 155.592 460.321 151.163C457.208 148.052 455.742 143.9 455.742 139.785C455.742 139.228 455.779 138.635 455.839 138.066C455.9 137.51 455.96 136.941 456.094 136.384C456.191 135.912 456.275 135.476 456.433 135.04C456.469 134.786 456.554 134.544 456.651 134.326C456.905 133.552 457.184 132.801 457.559 132.111C457.68 131.833 457.838 131.555 458.032 131.264C458.25 130.865 458.468 130.489 458.722 130.138C459.037 129.666 459.413 129.207 459.788 128.795C460.164 128.359 460.539 127.924 460.975 127.548C461.532 127.016 462.162 126.556 462.816 126.12C463.47 125.721 464.185 125.309 464.9 124.994C465.99 124.498 467.056 124.159 468.11 123.905C469.139 123.651 470.169 123.566 471.162 123.566C474.905 123.53 478.273 125.031 480.865 127.524C481.337 127.96 481.798 128.456 482.209 128.989C482.427 129.243 482.609 129.485 482.827 129.763C483.203 130.32 483.578 130.889 483.893 131.482C487.636 138.248 487.636 145.595 481.119 151.114L481.083 151.126Z" fill="black"/>
<path d="M434.593 192.533C429.203 191.565 423.8 190.693 418.41 189.882C414.861 189.35 411.275 188.853 407.714 188.381C402.324 187.691 396.958 187.074 391.592 186.578C388.042 186.239 384.518 185.924 380.956 185.67H380.896C361.939 184.266 343.006 184.048 324.122 185.234C323.904 185.271 323.649 185.271 323.407 185.295C320.355 185.476 317.266 185.694 314.177 186.009C313.898 186.009 313.583 186.045 313.244 186.07C308.629 186.505 303.99 187.001 299.375 187.631C298.878 187.691 298.345 187.752 297.812 187.849C295.038 188.188 292.228 188.623 289.454 189.059C282.465 190.185 275.451 191.492 268.438 193.041L213.493 202.482C198.836 205.012 180.315 205.447 162.206 203.015C160.401 202.76 158.584 202.482 156.78 202.204C151.353 201.272 146.023 200.086 140.911 198.621C138.356 197.871 135.824 197.06 133.401 196.188H133.365C131.742 195.571 130.155 194.978 128.568 194.324C126.23 193.295 123.917 192.242 121.736 191.117C120.271 190.342 118.866 189.531 117.497 188.72C116.128 187.873 114.783 186.977 113.475 186.106C111.61 184.738 109.853 183.334 108.206 181.833C108.17 181.797 108.109 181.773 108.085 181.736C144.691 198.657 180.545 198.524 219.768 192.823C232.583 190.742 245.181 188.466 257.778 186.348C266.197 184.92 274.579 183.576 282.998 182.426C287.213 181.87 291.453 181.337 295.692 180.865C297.812 180.611 299.968 180.393 302.088 180.211C308.484 179.618 314.94 179.146 321.457 178.928C341.783 178.214 361.987 178.589 381.816 180.925C389.835 181.833 397.745 183.08 405.606 184.69C409.531 185.464 413.431 186.372 417.296 187.365C423.122 188.865 428.9 190.548 434.605 192.509L434.593 192.533Z" fill="black"/>
<path d="M523.358 96.9261V169.052L507.647 169.197L507.017 97.7976L523.358 96.9261Z" fill="black"/>
<path d="M156.683 131.252C156.428 130.126 156.404 129.037 156.501 127.948C156.404 129.037 156.464 130.126 156.683 131.252Z" fill="black"/>
<path d="M159.868 121.218C159.553 121.497 159.275 121.811 159.021 122.126C159.275 121.811 159.517 121.533 159.832 121.218H159.868Z" fill="black"/>
<path d="M159.396 138.115C159.953 138.829 160.426 139.543 160.825 140.269C160.389 139.555 159.893 138.841 159.36 138.115C158.924 137.364 158.512 136.614 158.173 135.839C158.548 136.614 158.948 137.364 159.384 138.115H159.396Z" fill="black"/>
<path d="M161.116 152.567C161.516 151.877 161.867 151.163 162.109 150.412C161.855 151.163 161.552 151.877 161.116 152.567Z" fill="black"/>
<path d="M175.918 131.664C175.228 129.388 174.198 127.209 172.829 125.212C172.793 125.152 172.769 125.116 172.732 125.091C172.793 125.128 172.829 125.188 172.854 125.212C174.222 127.209 175.252 129.388 175.906 131.664H175.918Z" fill="black"/>
<path d="M175.918 131.688C176.294 132.838 176.536 133.987 176.693 135.174C176.512 133.987 176.257 132.838 175.918 131.688Z" fill="black"/>
<path d="M109.32 122.404H109.357C109.26 122.622 109.199 122.84 109.175 123.022C109.211 122.84 109.272 122.622 109.333 122.404H109.32Z" fill="black"/>
<path d="M115.583 153.934L115.304 154.709L113.742 153.934C114.578 152.942 114.808 152.724 114.868 152.506L115.583 153.934Z" fill="black"/>
<path d="M128.435 130.877C128.035 129.63 127.526 128.444 126.933 127.415C127.551 128.444 128.059 129.63 128.435 130.877Z" fill="black"/>
<path d="M249.566 126.616C249.881 126.302 250.22 126.023 250.595 125.769C250.22 126.047 249.881 126.326 249.566 126.641V126.604V126.616Z" fill="black"/>
<path d="M266.815 124.559C266.815 124.559 266.778 124.559 266.778 124.595C266.597 124.474 266.403 124.377 266.221 124.317C266.403 124.377 266.621 124.474 266.815 124.571V124.559Z" fill="black"/>
<path d="M468.073 123.929C467.008 124.183 465.954 124.522 464.863 125.019C464.149 125.333 463.434 125.733 462.78 126.144C463.434 125.709 464.125 125.333 464.863 124.994C465.954 124.522 467.02 124.159 468.073 123.929Z" fill="black"/>
<path d="M71.3702 81.3729C65.3864 81.3729 62.4066 76.8945 62.4066 67.9378C62.4066 58.9811 65.3985 54.4907 71.3702 54.4907C76.2518 54.4907 79.1347 57.4803 80.0311 63.4595H102.598C101.156 45.534 90.7512 36.553 71.3702 36.553C50.4267 36.553 39.9731 47.0227 39.9731 67.9499C39.9731 88.8771 50.4267 99.3226 71.3702 99.3226C90.7512 99.3226 101.156 90.3417 102.598 72.4162H80.0311C79.1347 78.3954 76.2518 81.385 71.3702 81.385V81.3729Z" fill="black"/>
<path d="M139.967 36.541H122.027L99.5938 99.3105H122.027L123.311 94.8201H138.658L139.955 99.3105H162.388L139.955 36.541H139.967ZM128.447 76.8945L131.003 67.9257L133.559 76.8945H128.447Z" fill="black"/>
<path d="M220.724 54.4786V36.541H166.87V99.3105H189.303V76.8945H220.724V58.9569H189.303V54.4786H220.724Z" fill="black"/>
<path d="M279.037 54.4786V36.541H258.372L250.196 44.723H236.835V36.541H225.206V99.3105H279.037V81.3729H247.64V76.8945H279.037V58.9569H247.64V54.4786H279.037Z" fill="black"/>
</g>
<defs>
<linearGradient id="paint0_linear_28_2" x1="13.8331" y1="168.834" x2="715.411" y2="64.8142" gradientUnits="userSpaceOnUse">
<stop stop-color="#E6BF51"/>
<stop offset="0.22" stop-color="#E6C052"/>
<stop offset="0.31" stop-color="#E7C35A"/>
<stop offset="0.38" stop-color="#EACA66"/>
<stop offset="0.44" stop-color="#EED477"/>
<stop offset="0.48" stop-color="#F2E08E"/>
<stop offset="0.52" stop-color="#F7EBA2"/>
<stop offset="0.53" stop-color="#F4E69B"/>
<stop offset="0.61" stop-color="#E6CF7D"/>
<stop offset="0.69" stop-color="#DCBE65"/>
<stop offset="0.78" stop-color="#D4B154"/>
<stop offset="0.88" stop-color="#D0AA4A"/>
<stop offset="1" stop-color="#CFA847"/>
</linearGradient>
<clipPath id="clip0_28_2">
<rect width="722" height="234" fill="white"/>
</clipPath>
</defs>
</svg>
