<svg width="389" height="574" viewBox="0 0 389 574" fill="none" xmlns="http://www.w3.org/2000/svg">
<g clip-path="url(#clip0_1_66)">
<path d="M388.636 537.155L388.676 25.5422C385.601 13.9358 376.192 0.324088 362.918 0.303832L24.9284 0C11.9583 2.83577 2.65066 12.6192 0.202341 25.6434L0 540.153C0 556.378 8.29597 570.557 24.8272 574L364.456 573.939C381.109 569.26 391.064 553.967 388.636 537.155ZM372.61 528.932C372.61 542.726 366.378 553.988 352.134 557.937L37.9187 557.634C24.8272 557.634 15.9242 543.212 15.9242 531.058L15.8635 321.779L16.0861 43.0227C16.1063 25.5219 28.53 15.7993 45.1422 15.7993L343.534 15.7588C361.745 15.7588 372.853 28.2361 372.853 46.0205L372.61 528.932Z" fill="#CCA678"/>
<path d="M196.675 414.934L172.192 389.554C163.775 380.823 156.632 371 152.342 359.697C150.865 355.767 149.692 352.405 146.616 349.691C149.57 373.856 164.604 391.133 182.471 405.738C192.082 413.577 200.479 422.145 207.905 431.908L208.735 431.746C205.821 426.074 201.592 420.018 196.675 414.934ZM196.675 414.934L172.192 389.554C163.775 380.823 156.632 371 152.342 359.697C150.865 355.767 149.692 352.405 146.616 349.691C149.57 373.856 164.604 391.133 182.471 405.738C192.082 413.577 200.479 422.145 207.905 431.908L208.735 431.746C205.821 426.074 201.592 420.018 196.675 414.934ZM196.675 414.934L172.192 389.554C163.775 380.823 156.632 371 152.342 359.697C150.865 355.767 149.692 352.405 146.616 349.691C149.57 373.856 164.604 391.133 182.471 405.738C192.082 413.577 200.479 422.145 207.905 431.908L208.735 431.746C205.821 426.074 201.592 420.018 196.675 414.934ZM196.675 414.934L172.192 389.554C163.775 380.823 156.632 371 152.342 359.697C150.865 355.767 149.692 352.405 146.616 349.691C149.57 373.856 164.604 391.133 182.471 405.738C192.082 413.577 200.479 422.145 207.905 431.908L208.735 431.746C205.821 426.074 201.592 420.018 196.675 414.934ZM196.675 414.934L172.192 389.554C163.775 380.823 156.632 371 152.342 359.697C150.865 355.767 149.692 352.405 146.616 349.691C149.57 373.856 164.604 391.133 182.471 405.738C192.082 413.577 200.479 422.145 207.905 431.908L208.735 431.746C205.821 426.074 201.592 420.018 196.675 414.934ZM208.735 431.746C205.821 426.074 201.592 420.018 196.675 414.934L172.192 389.554C163.775 380.823 156.632 371 152.342 359.697C150.865 355.767 149.692 352.405 146.616 349.691C149.57 373.856 164.604 391.133 182.471 405.738C192.082 413.577 200.479 422.145 207.905 431.908L208.836 433.123L209.888 432.718L208.735 431.746ZM196.675 414.934L172.192 389.554C163.775 380.823 156.632 371 152.342 359.697C150.865 355.767 149.692 352.405 146.616 349.691C149.57 373.856 164.604 391.133 182.471 405.738C192.082 413.577 200.479 422.145 207.905 431.908L208.735 431.746C205.821 426.074 201.592 420.018 196.675 414.934ZM196.675 414.934L172.192 389.554C163.775 380.823 156.632 371 152.342 359.697C150.865 355.767 149.692 352.405 146.616 349.691C149.57 373.856 164.604 391.133 182.471 405.738C192.082 413.577 200.479 422.145 207.905 431.908L208.735 431.746C205.821 426.074 201.592 420.018 196.675 414.934ZM196.675 414.934L172.192 389.554C163.775 380.823 156.632 371 152.342 359.697C150.865 355.767 149.692 352.405 146.616 349.691C149.57 373.856 164.604 391.133 182.471 405.738C192.082 413.577 200.479 422.145 207.905 431.908L208.735 431.746C205.821 426.074 201.592 420.018 196.675 414.934ZM196.675 414.934L172.192 389.554C163.775 380.823 156.632 371 152.342 359.697C150.865 355.767 149.692 352.405 146.616 349.691C149.57 373.856 164.604 391.133 182.471 405.738C192.082 413.577 200.479 422.145 207.905 431.908L208.735 431.746C205.821 426.074 201.592 420.018 196.675 414.934ZM196.675 414.934L172.192 389.554C163.775 380.823 156.632 371 152.342 359.697C150.865 355.767 149.692 352.405 146.616 349.691C149.57 373.856 164.604 391.133 182.471 405.738C192.082 413.577 200.479 422.145 207.905 431.908L208.735 431.746C205.821 426.074 201.592 420.018 196.675 414.934Z" fill="#CCA678"/>
<path d="M334.065 467.841C331.819 467.841 330.159 469.664 330.159 471.892C330.159 474.12 331.819 475.923 334.105 475.923C336.391 475.923 337.949 474.14 337.949 471.912C337.949 469.684 336.331 467.841 334.065 467.841ZM335.279 474.546C335.117 474.363 335.036 473.897 334.874 473.31C334.773 472.743 334.469 472.5 333.822 472.5H333.275V474.546H332.102V469.482C332.567 469.38 333.215 469.32 334.044 469.32C334.995 469.32 335.42 469.482 335.805 469.704C336.068 469.907 336.29 470.312 336.29 470.819C336.29 471.365 335.865 471.791 335.238 471.973V472.034C335.744 472.236 336.007 472.601 336.169 473.269C336.331 474.039 336.412 474.363 336.533 474.546H335.279ZM333.943 470.17C333.64 470.17 333.417 470.191 333.296 470.231V471.669H333.862C334.51 471.669 335.036 471.446 335.036 470.94C335.036 470.474 334.692 470.17 333.943 470.17ZM334.065 467.841C331.819 467.841 330.159 469.664 330.159 471.892C330.159 474.12 331.819 475.923 334.105 475.923C336.391 475.923 337.949 474.14 337.949 471.912C337.949 469.684 336.331 467.841 334.065 467.841ZM335.279 474.546C335.117 474.363 335.036 473.897 334.874 473.31C334.773 472.743 334.469 472.5 333.822 472.5H333.275V474.546H332.102V469.482C332.567 469.38 333.215 469.32 334.044 469.32C334.995 469.32 335.42 469.482 335.805 469.704C336.068 469.907 336.29 470.312 336.29 470.819C336.29 471.365 335.865 471.791 335.238 471.973V472.034C335.744 472.236 336.007 472.601 336.169 473.269C336.331 474.039 336.412 474.363 336.533 474.546H335.279ZM333.943 470.17C333.64 470.17 333.417 470.191 333.296 470.231V471.669H333.862C334.51 471.669 335.036 471.446 335.036 470.94C335.036 470.474 334.692 470.17 333.943 470.17ZM360.895 40.9161C360.895 34.6571 354.278 28.0539 348.896 28.0539L313.81 27.9323L301.528 39.3767L281.517 39.559L287.627 27.8108L95.2418 28.0133L38.809 28.3779C31.0998 28.4184 27.6195 36.7637 27.6195 43.9544L27.5588 532.051C27.5588 538.614 32.6578 546.088 39.1732 546.108L136.519 546.291L349.544 546.169C358.71 546.169 361.077 536.284 361.077 528.972L360.895 40.9161ZM198.213 37.5132L197.788 96.4566L169.764 37.5942L198.213 37.5132ZM156.915 62.0223L163.694 77.3355H150.744L156.915 62.0223ZM80.3293 57.8294C87.4314 52.3807 97.3664 54.1024 103.133 61.1716L127.434 61.3134C124.581 50.1323 117.216 43.4075 107.322 37.4727L144.228 37.5132L125.613 78.0241L100.199 77.5988C94.1289 82.9867 85.3878 83.9793 79.6008 78.571C73.7532 73.1223 73.5306 63.0351 80.3293 57.8294ZM73.0652 508.939C66.388 514.672 57.1208 516.859 48.9665 513.031C38.9101 508.332 34.7621 497.09 38.3638 487.448C42.188 477.219 53.6001 471.852 64.2634 475.092L60.8843 484.329C55.4818 483.701 50.2817 485.301 48.1773 490.203C46.417 494.355 47.0847 500.169 51.5969 503.288C55.8663 506.245 64.0206 505.455 66.6308 501.161C64.6276 491.094 67.7639 481.473 76.242 476.632C84.5177 471.933 95.2013 473.432 101.777 481.635C106.269 475.72 112.582 473.513 119.583 473.999C125.815 474.444 132.331 478.293 135.022 485.625C139.696 476.733 148.194 472.844 159.566 474.302L157.441 484.126C152.403 483.519 147.79 484.856 145.463 488.076C142.772 491.763 143.257 497.151 145.341 500.452C148.012 504.625 153.516 506.023 158.251 504.098L161.529 502.782C163.471 501.992 158.534 497.394 161.245 489.129C163.754 481.453 169.319 476.186 176.219 474.647C189.796 471.609 199.69 483.438 197.424 487.671C196.837 488.765 194.773 489.413 193.316 490.527L176.765 503.146C181.014 506.245 184.98 503.794 189.29 501.344C191.333 500.169 195.947 502.944 196.25 505.719C190.038 514.469 177.23 516.191 167.902 510.317C156.612 517.933 142.124 515.117 135.508 502.822C131.946 509.689 126.159 513.092 120.372 513.78C113.129 514.651 106.775 512.869 101.494 507.521C95.9904 513.558 88.7264 515.036 79.6413 514.125C105.966 529.499 144.613 524.131 175.773 518.723C194.308 515.522 212.235 513.74 230.689 514.084L229.98 493.646C229.819 488.4 225.428 485.18 221.098 484.532C217.051 483.944 210.96 486.598 210.859 491.742L210.556 509.729L200.783 509.993L200.378 492.573C200.135 482.648 209.079 475.092 218.346 474.404C227.31 473.735 237.002 479.589 239.308 489.251C241.15 497.029 240.118 505.577 240.199 514.125C256.184 515.219 271.764 517.001 285.968 523.888L275.871 521.842C256.163 517.852 236.172 517.163 216.12 518.419C201.369 519.351 187.57 521.903 173.022 524.111L142.205 528.81L116.225 528.891C102.142 528.932 89.0501 523.746 77.7191 515.806L73.0652 508.939ZM186.336 529.337L150.683 535.454C130.206 538.978 97.9531 536.244 82.2515 521.984C106.027 532.983 129.296 532.902 154.75 529.195C176.906 525.61 198.193 520.971 220.733 520.161C245.905 519.27 270.813 520.991 294.163 528.992C257.782 522.511 222.19 521.396 186.336 529.337ZM285.766 485.666C283.398 486.841 280.647 491.216 280.647 494.376V514.976L269.801 513.882C263.933 513.294 257.863 514.996 252.319 510.54C248.879 507.805 244.61 502.316 244.428 496.482L243.76 474.363L253.695 474.323L253.533 484.977L264.176 484.369L264.115 494.193L253.675 494.761C254.362 497.455 255.779 500.979 257.539 502.215C261.95 505.354 270.125 504.017 270.509 502.984C272.189 498.407 268.405 486.01 279.311 478.232C285.968 473.452 294.284 472.52 301.629 477.199L296.571 485.261C293.354 484.532 288.943 484.086 285.766 485.666ZM337.788 513.841H329.694C329.188 513.861 328.338 510.702 327.913 510.945L325.162 512.525C317.695 516.799 308.772 514.165 303.592 508.777C297.623 502.599 296.267 493.971 299.808 486.213C303.552 477.969 310.876 473.006 319.84 473.999C327.691 474.87 334.591 480.602 336.917 489.535C338.9 497.191 338.071 505.395 337.788 513.841ZM334.065 477.017C331.171 477.017 328.864 474.748 328.864 471.892C328.864 469.036 331.171 466.828 334.065 466.828C336.958 466.828 339.244 469.077 339.244 471.892C339.244 474.708 336.998 477.017 334.065 477.017ZM351.769 513.699L341.571 513.821L341.167 467.395L351.769 466.828V513.699ZM352.397 437.579C352.194 447.91 346.104 456.68 336.027 459.698L55.0771 459.394C42.9165 459.374 35.9155 446.411 35.9155 435.452L35.9964 179.18L36.1583 56.1482C36.1583 46.9522 46.073 40.1666 53.944 38.7285C59.7917 37.655 64.6074 37.7157 70.7788 37.8373C61.8758 42.9416 55.2188 50.1728 52.6895 58.6396C49.5532 69.1522 51.0708 79.6851 57.6873 87.9088C73.2473 107.253 101.413 107.84 119.098 90.461L114.909 101.662L140.627 101.298L144.39 92.8309L169.359 92.446L171.949 98.9886C150.724 104.842 137.693 123.741 132.392 145.029C109.163 149.222 86.9256 158.823 68.3305 173.954C59.7917 180.902 57.2017 191.799 58.2539 202.616C61.0462 231.095 86.2578 260.992 107.463 280.336L115.334 302.05C115.881 303.528 117.924 305.655 119.219 306.283C120.757 307.012 124.885 306.364 126.463 305.372C121.85 303.002 118.734 300.207 116.568 295.487C110.073 281.349 107.848 266.056 108.677 250.277C108.778 248.555 111.267 246.226 112.684 246.611L117.054 256.576C118.369 259.574 118.997 262.005 119.927 266.117L115.698 265.408L119.543 280.356C121.829 273.247 124.419 268.871 130.449 264.861L123.003 264.962L132.837 259.027L118.895 257.022C116.285 245.8 115.516 235.835 122.153 225.525L120.777 213.695C120.858 201.724 127.07 190.26 136.357 183.251C143.743 177.701 152.828 177.073 161.002 174.055C172.88 169.66 183.665 167.27 196.372 168.89C211.972 170.875 226.298 175.169 239.875 183.494C242.607 185.176 245.459 185.54 243.861 190.543L251.874 197.066L253.796 205.917C258.713 212.278 261.829 219.144 262.072 227.145L262.578 243.957L269.781 246.894C270.732 242.64 271.319 240.19 273.18 238.286C274.839 236.584 278.36 235.875 281.011 237.354C273.686 241.243 270.853 249.993 275.912 257.407C277.267 250.844 276.863 245.051 281.476 240.939C282.973 239.602 285.746 237.982 287.283 237.982C292.929 237.961 298.918 251.31 290.804 263.483C287.364 268.649 285.078 274.057 284.147 280.255C282.71 290.038 277.045 298.343 272.229 297.067C269.821 296.439 267.171 294.434 264.136 292.55C264.682 298.809 270.954 302.678 276.519 301.098C282.528 299.396 285.705 293.826 286.818 287.993C288.7 278.088 292.605 269.722 297.582 261.215C301.67 254.227 301.913 245.699 297.724 239.197C293.576 232.756 286.312 229.09 277.187 229.252C280.707 224.269 280.363 219.326 277.854 214.465C269.781 198.767 256.345 187.647 240.745 179.504C227.33 172.496 213.793 167.675 198.618 166.986C188.723 162.226 179.092 158.418 167.619 158.702C170.229 161.153 172.415 162.064 176.219 163.745L167.963 165.082C163.188 165.832 158.089 167.29 153.698 168.809C142.893 168.748 131.441 168.343 122.234 176.668C128.426 176.121 133.666 174.481 139.595 176.284C114.505 192.832 110.943 216.025 112.825 245.091C110.62 243.937 106.816 244.484 105.703 247.076C101.616 256.657 107.382 265.691 106.35 276.508C89.1311 256.455 69.5647 223.58 66.0238 199.598C64.9514 192.366 67.6223 186.188 73.1866 181.854C88.6455 169.741 105.602 160.545 124.015 153.496C127.515 152.159 131.441 153.01 134.698 154.934C148.619 150.701 162.237 146.933 176.664 143.956L228.503 133.281C198.78 132.268 171.16 137.211 142.165 143.247C145.847 121.391 160.841 106.767 183.139 104.62C212.134 101.804 226.055 108.914 245.116 132.046C236.111 134.557 226.682 133.869 217.071 139.135L265.491 137.596C272.816 137.373 279.048 138.892 285.017 143.49C303.693 157.831 317.999 177.924 323.502 201.238C329.208 225.403 324.271 249.608 312.798 271.079C301.427 292.307 282.265 306.243 259.057 310.071L261.08 296.5C254.666 309.16 253.735 323.48 254.666 338.024C255.961 334.783 255.961 331.501 256.568 327.673L259.117 311.61C269.275 309.787 278.077 308.289 286.838 304.156C318.363 289.269 335.967 250.419 334.065 216.126C332.385 185.986 316.906 158.378 292.463 141.079C279.068 131.6 263.346 129.959 247.281 132.511C240.968 120.176 232.247 109.764 221.442 102.878L222.271 79.7864L256.608 79.8674V62.7312L222.291 62.6907L222.15 54.7708L258.389 54.5683L258.45 37.6144L264.257 37.6752V101.257L326.8 101.156L326.881 82.9057L288.072 83.2095L288.234 76.3227L322.956 76.2822L322.835 60.4221L288.437 60.5639L288.153 53.8593L326.477 53.9809L326.416 38.0803C337.039 36.3789 352.558 43.0024 352.558 56.3103L352.478 365.652C339.002 360.608 326.962 356.537 313.952 353.479L294.163 348.86C284.653 340.13 276.944 330.124 269.72 319.429C267.231 315.722 263.427 313.737 258.956 313.778L262.132 321.09C265.572 352.527 257.782 378.899 234.189 400.066C227.148 406.406 220.369 411.895 215.796 420.788L239.106 401.038C256.487 386.313 266.746 366.158 269.093 343.594L270.631 333.466L287.506 353.863L289.246 413.354C260.332 398.932 229.819 409.222 209.888 432.718L208.836 433.123L206.489 435.554L210.455 434.46C220.228 425.041 231.296 418.539 243.982 413.88C264.115 409.303 281.294 410.66 297.077 425.183C297.704 401.038 295.539 379.345 292.888 355.727L308.853 357.631C324.028 361.115 338.152 365.996 352.619 371.668L352.397 437.579ZM334.065 467.841C331.819 467.841 330.159 469.664 330.159 471.892C330.159 474.12 331.819 475.923 334.105 475.923C336.391 475.923 337.949 474.14 337.949 471.912C337.949 469.684 336.331 467.841 334.065 467.841ZM335.279 474.546C335.117 474.363 335.036 473.897 334.874 473.31C334.773 472.743 334.469 472.5 333.822 472.5H333.275V474.546H332.102V469.482C332.567 469.38 333.215 469.32 334.044 469.32C334.995 469.32 335.42 469.482 335.805 469.704C336.068 469.907 336.29 470.312 336.29 470.819C336.29 471.365 335.865 471.791 335.238 471.973V472.034C335.744 472.236 336.007 472.601 336.169 473.269C336.331 474.039 336.412 474.363 336.533 474.546H335.279ZM333.943 470.17C333.64 470.17 333.417 470.191 333.296 470.231V471.669H333.862C334.51 471.669 335.036 471.446 335.036 470.94C335.036 470.474 334.692 470.17 333.943 470.17Z" fill="#CCA678"/>
<path d="M208.735 431.746L207.905 431.908L208.836 433.123L209.888 432.718L208.735 431.746Z" fill="#CCA678"/>
<path d="M86.6828 502.964C86.6423 503.086 86.5007 503.227 85.9543 503.896L86.966 504.402L87.1481 503.896L86.6828 502.964Z" fill="#CCA678"/>
<path d="M204.708 432.617C194.834 426.722 186.315 419.592 174.64 417.344L152.767 413.131C145.139 411.652 140.93 404.644 140.708 397.473C127.414 395.812 118.005 401.626 107.2 410.376C110.599 394.921 116.912 381.937 123.246 368.366L110.094 372.721L42.0059 399.823C66.9748 380.803 95.9904 369.237 125.391 359.191C130.105 353.134 133.059 345.984 140.182 341.426C131.097 360.406 122.882 377.886 116.022 396.704C126.281 392.673 136.094 389.857 146.009 394.536C144.39 400.714 146.191 405.738 151.836 408.067C164.887 413.394 185.809 410.255 204.708 432.617Z" fill="#CCA678"/>
<path d="M241.008 231.723L237.022 244.524C233.44 241.223 230.992 236.888 226.48 235.693C220.491 234.093 213.712 236.442 207.682 236.28C202.806 236.138 199.67 235.774 194.834 238.468L194.045 222.466C195.866 221.737 199.366 222.101 200.985 223.074C210.293 228.725 219.803 228.158 228.766 222.628C230.871 221.332 236.051 222.162 237.831 223.519C239.652 224.897 241.757 229.292 241.008 231.723Z" fill="#CCA678"/>
<path d="M165.879 239.46C165.818 240.271 163.592 241.526 162.722 241.526L146.94 241.871C139.089 242.033 132.331 247.826 124.885 251.816C123.064 248.515 122.902 241.506 125.735 238.832L135.245 229.839C138.118 227.145 141.881 230.021 144.067 232.756C147.931 237.637 159.748 228.502 164.948 235.794C165.454 236.483 165.919 238.65 165.879 239.46Z" fill="#CCA678"/>
<path d="M224.76 353.256C218.589 361.378 210.192 363.809 201.086 365.024C189.796 366.523 178.667 367.333 167.72 363.464C162.48 361.601 159.02 356.274 154.73 353.195C147.344 347.868 140.951 342.804 136.58 334.56C132.918 327.653 127.596 321.434 126.301 312.664L142.225 338.064C145.463 343.249 151.897 345.498 156.814 347.604C160.618 354.512 165.009 359.737 172.88 361.52C187.529 364.862 202.401 363.181 216.08 356.497L224.76 353.256Z" fill="#CCA678"/>
<path d="M215.513 315.743C212.498 314.973 209.746 314.75 206.347 314.953L182.046 317.667C175.146 314.791 167.983 314.223 160.922 317.849L158.19 318.193C157.421 318.274 157.704 315.479 157.907 314.709C163.35 308.005 171.848 307.033 178.991 312.016C184.514 308.856 190.221 308.248 196.291 309.747C210.839 313.292 216.707 308.592 215.513 315.743Z" fill="#CCA678"/>
<path d="M177.675 295.467C172.334 293.887 168.469 292.611 163.997 292.773C159.06 292.955 157.542 289.552 156.187 284.529L150.602 306.06C145.523 295.568 151.816 285.137 159.687 276.751L169.683 266.096C167.518 274.118 160.517 279.668 163.329 289.208C169.46 289.471 174.357 290.626 177.675 295.467Z" fill="#CCA678"/>
<path d="M224.598 215.701C209.767 214.465 197.302 213.331 184.818 220.724C183.219 221.676 179.011 221.433 176.906 220.785C167.437 216.936 159.303 216.248 149.813 216.389C153.172 210.434 170.512 215.822 180.71 218.678C194.368 211.609 210.616 209.138 224.598 215.701Z" fill="#CCA678"/>
<path d="M217.415 297.513C217.86 289.512 214.299 283.01 207.824 279.607C207.399 281.085 206.57 284.63 205.517 285.319L191.455 294.495C188.055 296.723 184.717 296.966 181.641 295.426L193.498 286.919C195.077 285.805 199.225 286.433 201.835 286.615C203.312 285.947 203.939 281.045 202.786 279.161C201.592 277.196 198.921 275.637 195.643 273.571C199.467 266.258 214.137 276.953 219.236 287.365C220.956 290.869 221.786 295.426 217.415 297.513Z" fill="#CCA678"/>
<path d="M227.654 247.664C224.497 249.892 218.67 251.371 214.623 249.446C213.449 248.879 212.66 246.286 211.972 243.734L201.552 248.434C204 242.924 210.556 239.987 216.424 239.501C222.332 239.035 229.151 241.668 231.741 247.644L223.323 243.187L222.939 245.699C222.838 246.469 224.902 246.874 227.654 247.664Z" fill="#CCA678"/>
<path d="M233.602 208.247C221.543 207.153 211.082 205.836 199.69 206.91L177.433 209.037C194.166 201.623 216.383 199.679 233.602 208.247Z" fill="#CCA678"/>
<path d="M163.592 251.978L162.237 252.566C161.893 252.707 161.387 251.816 160.841 251.29L158.473 249.082C157.907 248.575 155.863 250.236 155.863 251.006C155.843 251.755 156.187 252.181 157.482 254.652L142.205 255.624L144.35 253.538C144.916 252.991 143.945 249.973 143.237 250.317L134.091 254.976C138.441 247.846 147.142 246.712 154.77 245.881C161.569 245.152 163.855 251.877 163.592 251.978Z" fill="#CCA678"/>
<path d="M184.17 397.19C181.034 394.759 178.626 390.688 179.132 386.839L181.014 372.6L183.341 379.952L190.443 381.978C184.96 386.029 183.867 390.688 184.17 397.19Z" fill="#CCA678"/>
<path d="M203.858 319.064C194.105 328.503 173.345 328.909 163.512 320.097C177.736 323.946 189.897 323.966 203.858 319.064Z" fill="#CCA678"/>
<path d="M271.258 282.989C268.668 282.098 268.567 275.029 270.449 268.871L272.492 277.804C278.057 274.847 281.213 269.459 279.776 262.39C288.194 267.737 276.499 284.752 271.258 282.989Z" fill="#CCA678"/>
<path d="M239.167 312.016C239.187 302.779 240.482 294.819 238.782 286.23C237.629 280.295 236.516 274.664 237.487 268.324C242.06 282.22 245.399 297.33 239.167 312.016Z" fill="#CCA678"/>
<path d="M213.732 397.372C210.394 392.754 210.03 387.022 209.504 382.059L202.179 383.558L211.932 369.075L213.732 397.372Z" fill="#CCA678"/>
<path d="M252.339 252.343C246.876 250.054 242.121 249.325 235.262 249.163C237.71 243.592 245.014 241.304 250.619 245.031L242.991 246.833C247.746 247.704 250.822 248.292 252.339 252.343Z" fill="#CCA678"/>
<path d="M264.945 262.207L262.476 284.752C262.416 285.339 260.332 285.238 260.352 284.671C260.412 276.67 261.546 267.656 263.69 259.554C264.176 259.858 265.026 261.498 264.945 262.207Z" fill="#CCA678"/>
<path d="M165.15 224.411C157.381 222.79 150.643 222.648 141.578 223.6C145.564 219.995 162.176 218.192 165.15 224.411Z" fill="#CCA678"/>
<path d="M224.578 332.777C220.066 331.076 217.415 325.789 219.661 320.705L224.578 332.777Z" fill="#CCA678"/>
<path d="M115.091 504.868C109.406 504.483 106.31 500.027 106.512 494.578C106.735 488.522 110.154 483.114 115.881 482.607C112.603 485.808 113.371 489.838 115.577 493.586C118.531 497.434 118.47 501.951 115.091 504.868Z" fill="#CCA678"/>
<path d="M126.2 499.115C125.026 502.944 121.526 505.192 117.884 504.686C120.292 501.708 121.323 497.9 118.976 494.639C117.823 490.73 117.216 487.691 116.771 482.871C119.482 482.506 122.861 483.093 124.318 485.22C127.05 489.19 127.677 494.355 126.2 499.115Z" fill="#CCA678"/>
<path d="M94.0479 501.89C92.3685 504.422 88.8073 505.314 86.966 504.402L85.9543 503.896C85.1247 504.605 81.6647 504.929 80.5518 503.997C76.8895 500.898 75.9992 497.029 76.1206 492.553C76.2824 487.874 79.0343 484.086 83.0811 483.397C80.4304 491.56 89.0097 496.786 86.6827 502.964L87.1481 503.896C93.2993 497.819 86.3185 492.978 85.1045 483.033C90.6891 481.675 95.0394 484.896 95.8488 490.628C96.3546 494.315 96.0511 498.893 94.0479 501.89Z" fill="#CCA678"/>
<path d="M185.283 484.795C179.537 488.684 175.551 492.087 171.039 496.766C169.966 492.796 171.241 488.826 174.094 486.132C176.826 483.58 181.419 482.709 185.283 484.795Z" fill="#CCA678"/>
<path d="M324.332 502.052C320.912 504.969 314.761 506.023 310.856 502.093C305.858 497.029 307.376 487.975 313.81 485.078C318.97 482.749 323.786 485.038 326.133 489.312C328.561 493.707 328.561 498.488 324.332 502.052Z" fill="#CCA678"/>
</g>
<defs>
<clipPath id="clip0_1_66">
<rect width="389" height="574" fill="white"/>
</clipPath>
</defs>
</svg>
